<svg width="41" height="41" viewBox="0 0 41 41" fill="none" xmlns="http://www.w3.org/2000/svg">
<path d="M13.92 12.2186L18.5 7.61862V26.7986C18.5 27.3291 18.7107 27.8378 19.0858 28.2128C19.4609 28.5879 19.9696 28.7986 20.5 28.7986C21.0304 28.7986 21.5391 28.5879 21.9142 28.2128C22.2893 27.8378 22.5 27.3291 22.5 26.7986V7.61862L27.08 12.2186C27.2659 12.4061 27.4871 12.5549 27.7308 12.6564C27.9746 12.7579 28.236 12.8102 28.5 12.8102C28.764 12.8102 29.0254 12.7579 29.2692 12.6564C29.5129 12.5549 29.7341 12.4061 29.92 12.2186C30.1075 12.0327 30.2562 11.8115 30.3578 11.5678C30.4593 11.3241 30.5116 11.0626 30.5116 10.7986C30.5116 10.5346 30.4593 10.2732 30.3578 10.0295C30.2562 9.78575 30.1075 9.56455 29.92 9.37862L21.92 1.37862C21.7298 1.19654 21.5055 1.05381 21.26 0.958621C20.7731 0.758585 20.2269 0.758585 19.74 0.958621C19.4945 1.05381 19.2702 1.19654 19.08 1.37862L11.08 9.37862C10.8935 9.5651 10.7456 9.78648 10.6447 10.0301C10.5438 10.2738 10.4918 10.5349 10.4918 10.7986C10.4918 11.0623 10.5438 11.3235 10.6447 11.5671C10.7456 11.8108 10.8935 12.0321 11.08 12.2186C11.2665 12.4051 11.4879 12.553 11.7315 12.6539C11.9751 12.7549 12.2363 12.8068 12.5 12.8068C12.7637 12.8068 13.0249 12.7549 13.2685 12.6539C13.5121 12.553 13.7335 12.4051 13.92 12.2186ZM38.5 20.7986C37.9696 20.7986 37.4609 21.0093 37.0858 21.3844C36.7107 21.7595 36.5 22.2682 36.5 22.7986V34.7986C36.5 35.3291 36.2893 35.8378 35.9142 36.2128C35.5391 36.5879 35.0304 36.7986 34.5 36.7986H6.5C5.96957 36.7986 5.46086 36.5879 5.08579 36.2128C4.71071 35.8378 4.5 35.3291 4.5 34.7986V22.7986C4.5 22.2682 4.28929 21.7595 3.91421 21.3844C3.53914 21.0093 3.03043 20.7986 2.5 20.7986C1.96957 20.7986 1.46086 21.0093 1.08579 21.3844C0.710714 21.7595 0.5 22.2682 0.5 22.7986V34.7986C0.5 36.3899 1.13214 37.916 2.25736 39.0413C3.38258 40.1665 4.9087 40.7986 6.5 40.7986H34.5C36.0913 40.7986 37.6174 40.1665 38.7426 39.0413C39.8679 37.916 40.5 36.3899 40.5 34.7986V22.7986C40.5 22.2682 40.2893 21.7595 39.9142 21.3844C39.5391 21.0093 39.0304 20.7986 38.5 20.7986Z" fill="black"/>
</svg>
