<svg width="45" height="25" viewBox="0 0 45 25" fill="none" xmlns="http://www.w3.org/2000/svg">
<path d="M44.5 4.79688C44.5 6.99687 42.7 8.79688 40.5 8.79688C40.14 8.79688 39.8 8.75688 39.48 8.65688L32.36 15.7569C32.46 16.0769 32.5 16.4369 32.5 16.7969C32.5 18.9969 30.7 20.7969 28.5 20.7969C26.3 20.7969 24.5 18.9969 24.5 16.7969C24.5 16.4369 24.54 16.0769 24.64 15.7569L19.54 10.6569C19.22 10.7569 18.86 10.7969 18.5 10.7969C18.14 10.7969 17.78 10.7569 17.46 10.6569L8.36 19.7769C8.46 20.0969 8.5 20.4369 8.5 20.7969C8.5 22.9969 6.7 24.7969 4.5 24.7969C2.3 24.7969 0.5 22.9969 0.5 20.7969C0.5 18.5969 2.3 16.7969 4.5 16.7969C4.86 16.7969 5.2 16.8369 5.52 16.9369L14.64 7.83688C14.54 7.51688 14.5 7.15688 14.5 6.79688C14.5 4.59687 16.3 2.79688 18.5 2.79688C20.7 2.79688 22.5 4.59687 22.5 6.79688C22.5 7.15688 22.46 7.51688 22.36 7.83688L27.46 12.9369C27.78 12.8369 28.14 12.7969 28.5 12.7969C28.86 12.7969 29.22 12.8369 29.54 12.9369L36.64 5.81688C36.54 5.49688 36.5 5.15688 36.5 4.79688C36.5 2.59687 38.3 0.796875 40.5 0.796875C42.7 0.796875 44.5 2.59687 44.5 4.79688Z" fill="black"/>
</svg>
