<svg width="41" height="42" viewBox="0 0 41 42" fill="none" xmlns="http://www.w3.org/2000/svg">
<path d="M1.50006 14.7212L19.5001 25.1212C19.8041 25.2968 20.149 25.3892 20.5001 25.3892C20.8511 25.3892 21.196 25.2968 21.5001 25.1212L39.5001 14.7212C39.8023 14.5467 40.0537 14.2961 40.2291 13.9944C40.4045 13.6927 40.498 13.3503 40.5001 13.0012C40.5015 12.6488 40.4097 12.3023 40.2341 11.9967C40.0585 11.6912 39.8053 11.4374 39.5001 11.2612L21.5001 0.881231C21.196 0.705694 20.8511 0.613281 20.5001 0.613281C20.149 0.613281 19.8041 0.705694 19.5001 0.881231L1.50006 11.2612C1.19485 11.4374 0.941624 11.6912 0.766017 11.9967C0.590411 12.3023 0.498662 12.6488 0.500061 13.0012C0.502168 13.3503 0.595579 13.6927 0.77101 13.9944C0.946442 14.2961 1.19779 14.5467 1.50006 14.7212ZM20.5001 5.00123L34.5001 13.0012L20.5001 21.0012L6.50006 13.0012L20.5001 5.00123ZM37.5001 19.3412L20.5001 29.0012L3.50006 19.2612C3.27179 19.129 3.01962 19.0432 2.75806 19.0089C2.49651 18.9745 2.23073 18.9922 1.97605 19.061C1.72137 19.1298 1.48282 19.2483 1.27412 19.4096C1.06543 19.571 0.890721 19.7721 0.760061 20.0012C0.499316 20.4605 0.430784 21.0042 0.569417 21.5138C0.708051 22.0233 1.0426 22.4574 1.50006 22.7212L19.5001 33.1212C19.8041 33.2968 20.149 33.3892 20.5001 33.3892C20.8511 33.3892 21.196 33.2968 21.5001 33.1212L39.5001 22.7212C39.9575 22.4574 40.2921 22.0233 40.4307 21.5138C40.5693 21.0042 40.5008 20.4605 40.2401 20.0012C40.1094 19.7721 39.9347 19.571 39.726 19.4096C39.5173 19.2483 39.2787 19.1298 39.0241 19.061C38.7694 18.9922 38.5036 18.9745 38.2421 19.0089C37.9805 19.0432 37.7283 19.129 37.5001 19.2612V19.3412ZM37.5001 27.3412L20.5001 37.0012L3.50006 27.2612C3.27179 27.129 3.01962 27.0432 2.75806 27.0089C2.49651 26.9745 2.23073 26.9922 1.97605 27.061C1.72137 27.1298 1.48282 27.2483 1.27412 27.4096C1.06543 27.571 0.890721 27.7721 0.760061 28.0012C0.499316 28.4605 0.430784 29.0042 0.569417 29.5138C0.708051 30.0233 1.0426 30.4574 1.50006 30.7212L19.5001 41.1212C19.8041 41.2968 20.149 41.3892 20.5001 41.3892C20.8511 41.3892 21.196 41.2968 21.5001 41.1212L39.5001 30.7212C39.9575 30.4574 40.2921 30.0233 40.4307 29.5138C40.5693 29.0042 40.5008 28.4605 40.2401 28.0012C40.1094 27.7721 39.9347 27.571 39.726 27.4096C39.5173 27.2483 39.2787 27.1298 39.0241 27.061C38.7694 26.9922 38.5036 26.9745 38.2421 27.0089C37.9805 27.0432 37.7283 27.129 37.5001 27.2612V27.3412Z" fill="black"/>
</svg>
