<svg width="43" height="43" viewBox="0 0 43 43" fill="none" xmlns="http://www.w3.org/2000/svg">
<path d="M38 30.21V24C38 23.2044 37.6839 22.4413 37.1213 21.8787C36.5587 21.3161 35.7957 21 35 21H23V15H36.5C37.2957 15 38.0587 14.6839 38.6213 14.1213C39.1839 13.5587 39.5 12.7956 39.5 12V3C39.5 2.20435 39.1839 1.44129 38.6213 0.87868C38.0587 0.31607 37.2957 0 36.5 0H6.50001C5.70437 0 4.9413 0.31607 4.37869 0.87868C3.81608 1.44129 3.50001 2.20435 3.50001 3V12C3.50001 12.7956 3.81608 13.5587 4.37869 14.1213C4.9413 14.6839 5.70437 15 6.50001 15H20V21H8.00001C7.20437 21 6.4413 21.3161 5.87869 21.8787C5.31608 22.4413 5.00001 23.2044 5.00001 24V30.21C3.58603 30.5751 2.35373 31.4433 1.53411 32.652C0.714493 33.8607 0.363825 35.3268 0.547836 36.7755C0.731848 38.2242 1.43791 39.5561 2.53367 40.5215C3.62943 41.4869 5.03965 42.0195 6.50001 42.0195C7.96038 42.0195 9.37061 41.4869 10.4664 40.5215C11.5621 39.5561 12.2682 38.2242 12.4522 36.7755C12.6362 35.3268 12.2855 33.8607 11.4659 32.652C10.6463 31.4433 9.414 30.5751 8.00001 30.21V24H20V30H15.5V42H27.5V30H23V24H35V30.21C33.586 30.5751 32.3537 31.4433 31.5341 32.652C30.7145 33.8607 30.3638 35.3268 30.5478 36.7755C30.7318 38.2242 31.4379 39.5561 32.5337 40.5215C33.6294 41.4869 35.0397 42.0195 36.5 42.0195C37.9604 42.0195 39.3706 41.4869 40.4664 40.5215C41.5621 39.5561 42.2682 38.2242 42.4522 36.7755C42.6362 35.3268 42.2855 33.8607 41.4659 32.652C40.6463 31.4433 39.414 30.5751 38 30.21ZM9.50002 36C9.50002 36.5933 9.32407 37.1734 8.99442 37.6667C8.66478 38.1601 8.19624 38.5446 7.64807 38.7716C7.09989 38.9987 6.49669 39.0581 5.91474 38.9424C5.3328 38.8266 4.79825 38.5409 4.37869 38.1213C3.95914 37.7018 3.67341 37.1672 3.55766 36.5853C3.4419 36.0033 3.50131 35.4001 3.72838 34.8519C3.95544 34.3038 4.33996 33.8352 4.8333 33.5056C5.32665 33.1759 5.90667 33 6.50001 33C7.29566 33 8.05873 33.3161 8.62134 33.8787C9.18394 34.4413 9.50002 35.2043 9.50002 36ZM24.5 33V39H18.5V33H24.5ZM6.50001 12V3H36.5V12H6.50001ZM36.5 39C35.9067 39 35.3267 38.8241 34.8333 38.4944C34.34 38.1648 33.9554 37.6962 33.7284 37.1481C33.5013 36.5999 33.4419 35.9967 33.5577 35.4147C33.6734 34.8328 33.9591 34.2982 34.3787 33.8787C34.7983 33.4591 35.3328 33.1734 35.9147 33.0576C36.4967 32.9419 37.0999 33.0013 37.6481 33.2284C38.1962 33.4554 38.6648 33.8399 38.9944 34.3333C39.3241 34.8266 39.5 35.4067 39.5 36C39.5 36.7957 39.1839 37.5587 38.6213 38.1213C38.0587 38.6839 37.2957 39 36.5 39Z" fill="black"/>
</svg>
