<svg width="41" height="40" viewBox="0 0 41 40" fill="none" xmlns="http://www.w3.org/2000/svg">
<path d="M22.5 0.101562V6.16156C29.28 7.14156 34.5 12.9416 34.5 20.0016C34.5 21.8016 34.14 23.5016 33.54 25.0816L38.74 28.1416C39.86 25.6616 40.5 22.9016 40.5 20.0016C40.5 9.64156 32.6 1.10156 22.5 0.101562ZM20.5 34.0016C12.76 34.0016 6.5 27.7416 6.5 20.0016C6.5 12.9416 11.72 7.14156 18.5 6.16156V0.101562C8.38 1.10156 0.5 9.62156 0.5 20.0016C0.5 31.0416 9.44 40.0016 20.48 40.0016C27.1 40.0016 32.96 36.7816 36.6 31.8216L31.4 28.7616C28.84 31.9616 24.92 34.0016 20.5 34.0016Z" fill="black"/>
</svg>
