<svg width="41" height="40" viewBox="0 0 41 40" fill="none" xmlns="http://www.w3.org/2000/svg">
<path d="M26.14 18.0016H40.4C39.46 8.56156 31.94 1.04156 22.5 0.101562V14.3616C24.2 14.9816 25.52 16.3016 26.14 18.0016ZM26.5 5.16156C30.5 6.80156 33.7 10.0016 35.34 14.0016H28.48C27.92 13.2616 27.24 12.5816 26.5 12.0216V5.16156ZM0.5 20.0016C0.5 30.3816 8.4 38.9016 18.5 39.9016V25.6416C16.18 24.8016 14.5 22.6016 14.5 20.0016C14.5 17.4016 16.18 15.2016 18.5 14.3616V0.101562C8.4 1.10156 0.5 9.62156 0.5 20.0016ZM14.5 5.16156V12.0416C12.04 13.8816 10.5 16.8216 10.5 20.0016C10.5 23.1816 12.04 26.1216 14.5 27.9816V34.8616C8.58 32.4816 4.5 26.7016 4.5 20.0016C4.5 13.3016 8.58 7.52156 14.5 5.16156ZM22.5 25.6416V39.9016C31.94 38.9616 39.46 31.4416 40.4 22.0016H26.14C25.52 23.7016 24.2 25.0216 22.5 25.6416ZM26.5 27.9816C27.24 27.4216 27.92 26.7616 28.48 26.0016H35.34C33.7 30.0016 30.5 33.2016 26.5 34.8416V27.9816Z" fill="black"/>
</svg>
