<svg width="106" height="45" viewBox="0 0 106 45" fill="none" xmlns="http://www.w3.org/2000/svg">
    <path d="M12.512 0.647999C19.4667 0.647999 25.0347 2.22667 29.216 5.384C33.44 8.49867 35.552 14.2373 35.552 22.6C35.552 30.8347 33.504 36.6373 29.408 40.008C25.312 43.336 20 45 13.472 45H0.16V0.647999H12.512ZM10.656 8.264V37.384H14.112C17.568 37.384 20.192 36.3173 21.984 34.184C23.776 32.008 24.672 28.1467 24.672 22.6C24.672 18.8027 24.224 15.8587 23.328 13.768C22.432 11.6773 21.216 10.248 19.68 9.48C18.144 8.66933 16.2453 8.264 13.984 8.264H10.656Z" fill="#8759F2"/>
    <path d="M25.5685 26.2695C25.5685 28.1992 25.2091 29.8125 24.4904 31.1094C23.7716 32.3984 22.7286 33.3711 21.3615 34.0273C19.9943 34.6758 18.3458 35 16.4161 35H11.6583V17.8672H16.9318C18.7052 17.8672 20.2365 18.1875 21.5255 18.8281C22.8146 19.4609 23.8107 20.4023 24.5138 21.6523C25.2169 22.8945 25.5685 24.4336 25.5685 26.2695ZM22.6388 26.3516C22.6388 24.9453 22.4161 23.7891 21.9708 22.8828C21.5333 21.9766 20.8849 21.3047 20.0255 20.8672C19.174 20.4219 18.1232 20.1992 16.8732 20.1992H14.4708V32.6445H16.463C18.5333 32.6445 20.0802 32.1172 21.1036 31.0625C22.1271 30.0078 22.6388 28.4375 22.6388 26.3516ZM34.0646 21.7812C35.7052 21.7812 36.9435 22.1445 37.7794 22.8711C38.6232 23.5977 39.045 24.7305 39.045 26.2695V35H37.088L36.5607 33.1602H36.4669C36.0997 33.6289 35.7208 34.0156 35.3302 34.3203C34.9396 34.625 34.4865 34.8516 33.9708 35C33.463 35.1562 32.8419 35.2344 32.1075 35.2344C31.3341 35.2344 30.6427 35.0938 30.0333 34.8125C29.424 34.5234 28.9435 34.0859 28.5919 33.5C28.2404 32.9141 28.0646 32.1719 28.0646 31.2734C28.0646 29.9375 28.5607 28.9336 29.5529 28.2617C30.5529 27.5898 32.0607 27.2188 34.0763 27.1484L36.3263 27.0664V26.3867C36.3263 25.4883 36.1154 24.8477 35.6935 24.4648C35.2794 24.082 34.6935 23.8906 33.9357 23.8906C33.2872 23.8906 32.6583 23.9844 32.049 24.1719C31.4396 24.3594 30.8458 24.5898 30.2677 24.8633L29.3771 22.918C30.0099 22.582 30.7286 22.3086 31.5333 22.0977C32.3458 21.8867 33.1896 21.7812 34.0646 21.7812ZM36.3146 28.8008L34.6388 28.8594C33.2638 28.9062 32.299 29.1406 31.7443 29.5625C31.1896 29.9844 30.9122 30.5625 30.9122 31.2969C30.9122 31.9375 31.1036 32.4062 31.4865 32.7031C31.8693 32.9922 32.3732 33.1367 32.9982 33.1367C33.9513 33.1367 34.7404 32.8672 35.3654 32.3281C35.9982 31.7812 36.3146 30.9805 36.3146 29.9258V28.8008ZM47.7286 33.0078C48.088 33.0078 48.4435 32.9766 48.795 32.9141C49.1466 32.8438 49.4669 32.7617 49.756 32.668V34.7539C49.4513 34.8867 49.0568 35 48.5724 35.0938C48.088 35.1875 47.5841 35.2344 47.0607 35.2344C46.3263 35.2344 45.6661 35.1133 45.0802 34.8711C44.4943 34.6211 44.0294 34.1953 43.6857 33.5938C43.3419 32.9922 43.17 32.1602 43.17 31.0977V24.125H41.4005V22.8945L43.299 21.9219L44.2013 19.1445H45.9357V22.0273H49.6505V24.125H45.9357V31.0625C45.9357 31.7188 46.0997 32.207 46.4279 32.5273C46.756 32.8477 47.1896 33.0078 47.7286 33.0078ZM57.4786 21.7812C59.1193 21.7812 60.3575 22.1445 61.1935 22.8711C62.0372 23.5977 62.4591 24.7305 62.4591 26.2695V35H60.5021L59.9747 33.1602H59.881C59.5138 33.6289 59.1349 34.0156 58.7443 34.3203C58.3536 34.625 57.9005 34.8516 57.3849 35C56.8771 35.1562 56.256 35.2344 55.5216 35.2344C54.7482 35.2344 54.0568 35.0938 53.4474 34.8125C52.838 34.5234 52.3575 34.0859 52.006 33.5C51.6544 32.9141 51.4786 32.1719 51.4786 31.2734C51.4786 29.9375 51.9747 28.9336 52.9669 28.2617C53.9669 27.5898 55.4747 27.2188 57.4904 27.1484L59.7404 27.0664V26.3867C59.7404 25.4883 59.5294 24.8477 59.1075 24.4648C58.6935 24.082 58.1075 23.8906 57.3497 23.8906C56.7013 23.8906 56.0724 23.9844 55.463 24.1719C54.8536 24.3594 54.2599 24.5898 53.6818 24.8633L52.7911 22.918C53.424 22.582 54.1427 22.3086 54.9474 22.0977C55.7599 21.8867 56.6036 21.7812 57.4786 21.7812ZM59.7286 28.8008L58.0529 28.8594C56.6779 28.9062 55.713 29.1406 55.1583 29.5625C54.6036 29.9844 54.3263 30.5625 54.3263 31.2969C54.3263 31.9375 54.5177 32.4062 54.9005 32.7031C55.2833 32.9922 55.7872 33.1367 56.4122 33.1367C57.3654 33.1367 58.1544 32.8672 58.7794 32.3281C59.4122 31.7812 59.7286 30.9805 59.7286 29.9258V28.8008ZM77.4122 35H65.0958V33.0664L73.8146 20.2578H65.3654V17.8672H77.1779V19.7891L68.4591 32.6094H77.4122V35ZM85.3107 21.7812C86.4669 21.7812 87.4591 22.0195 88.2872 22.4961C89.1154 22.9727 89.7521 23.6484 90.1974 24.5234C90.6427 25.3984 90.8654 26.4453 90.8654 27.6641V29.1406H82.2052C82.2365 30.3984 82.5724 31.3672 83.213 32.0469C83.8615 32.7266 84.7677 33.0664 85.9318 33.0664C86.7599 33.0664 87.5021 32.9883 88.1583 32.832C88.8224 32.668 89.506 32.4297 90.2091 32.1172V34.3555C89.5607 34.6602 88.9005 34.8828 88.2286 35.0234C87.5568 35.1641 86.7521 35.2344 85.8146 35.2344C84.5411 35.2344 83.42 34.9883 82.4513 34.4961C81.4904 33.9961 80.7365 33.2539 80.1896 32.2695C79.6505 31.2852 79.381 30.0625 79.381 28.6016C79.381 27.1484 79.6271 25.9141 80.1193 24.8984C80.6115 23.8828 81.3029 23.1094 82.1935 22.5781C83.0841 22.0469 84.1232 21.7812 85.3107 21.7812ZM85.3107 23.8555C84.4435 23.8555 83.7404 24.1367 83.2013 24.6992C82.67 25.2617 82.3575 26.0859 82.2638 27.1719H88.17C88.1622 26.5234 88.0529 25.9492 87.8419 25.4492C87.6388 24.9492 87.3263 24.5586 86.9044 24.2773C86.4904 23.9961 85.9591 23.8555 85.3107 23.8555ZM100.733 21.7812C102.193 21.7812 103.33 22.1602 104.143 22.918C104.963 23.668 105.373 24.875 105.373 26.5391V35H102.619V27.0547C102.619 26.0469 102.412 25.293 101.998 24.793C101.584 24.2852 100.943 24.0312 100.076 24.0312C98.8185 24.0312 97.9435 24.418 97.4513 25.1914C96.9669 25.9648 96.7247 27.0859 96.7247 28.5547V35H93.9708V22.0273H96.1154L96.5021 23.7852H96.6544C96.9357 23.332 97.2833 22.9609 97.6974 22.6719C98.1193 22.375 98.588 22.1523 99.1036 22.0039C99.6271 21.8555 100.17 21.7812 100.733 21.7812Z" fill="white"/>
</svg>
