<svg width="651" height="363" viewBox="0 0 651 363" fill="none" xmlns="http://www.w3.org/2000/svg">
<rect opacity="0.6" width="60" height="60" transform="matrix(-1 0 0 1 650.505 222.91)" fill="#DFA463" fill-opacity="0.2"/>
<rect width="140" height="64.2359" rx="11.1715" transform="matrix(-1 0 0 1 574.413 158.68)" fill="#AA97D5" fill-opacity="0.5"/>
<circle r="30" transform="matrix(-1 0 0 1 538.547 305.555)" fill="#B2CEC7" fill-opacity="0.5"/>
<path d="M538.656 275.738V266.426C538.656 260.511 538.656 257.554 540.493 255.716C542.331 253.879 545.288 253.879 551.203 253.879H590.242" stroke="#BDBDBD" stroke-opacity="0.5" stroke-width="1.23864" stroke-linecap="round" stroke-linejoin="round" stroke-dasharray="2.48 2.48"/>
<circle cx="591.833" cy="253.578" r="1.312" stroke="#BDBDBD" stroke-opacity="0.5" stroke-width="1.23864" stroke-linecap="round" stroke-linejoin="round"/>
<path d="M537.46 274.512L538.96 276.011L540.459 274.512" stroke="#BDBDBD" stroke-opacity="0.5" stroke-width="1.23864" stroke-linecap="round" stroke-linejoin="round"/>
<rect width="110" height="50" rx="9.20416" transform="matrix(-1 0 0 1 195.82 113.992)" fill="#AA97D5" fill-opacity="0.5"/>
<circle r="45" transform="matrix(-1 0 0 1 368.169 309.805)" fill="#B2CEC7" fill-opacity="0.5"/>
<path d="M159 269L89 310.048L159 351.096L229 310.048L159 269Z" fill="#D78972" fill-opacity="0.5"/>
<path d="M85.2451 140.059H21.5343C11.9414 140.059 7.1449 140.059 4.16475 143.039C1.18461 146.019 1.18461 150.815 1.18461 160.408V289.417C1.18461 299.01 1.18461 303.807 4.16475 306.787C7.1449 309.767 11.9414 309.767 21.5343 309.767H85.07" stroke="#BDBDBD" stroke-opacity="0.5" stroke-width="1.86191" stroke-linecap="round" stroke-linejoin="round"/>
<circle cx="87.3113" cy="309.987" r="2.12793" stroke="#BDBDBD" stroke-opacity="0.5" stroke-width="1.86191" stroke-linecap="round" stroke-linejoin="round"/>
<path d="M82.7501 142.708L85.182 140.276L82.7501 137.844" stroke="#BDBDBD" stroke-opacity="0.5" stroke-width="1.86191" stroke-linecap="round" stroke-linejoin="round"/>
<path d="M321.853 310.215H232.902" stroke="#BDBDBD" stroke-opacity="0.5" stroke-width="0.930955" stroke-linecap="round" stroke-linejoin="round" stroke-dasharray="1.86 1.86"/>
<path d="M319.991 312.011L322.25 309.752L319.991 307.492" stroke="#BDBDBD" stroke-opacity="0.5" stroke-width="1.57561" stroke-linecap="round" stroke-linejoin="round"/>
<circle r="1.9771" transform="matrix(-1 0 0 1 230.521 309.751)" stroke="#BDBDBD" stroke-opacity="0.5" stroke-width="0.930955" stroke-linecap="round" stroke-linejoin="round"/>
<path d="M129.76 45.4313C129.643 45.0751 129.49 44.756 129.3 44.4739C129.113 44.1882 128.889 43.9449 128.628 43.7439C128.37 43.5429 128.078 43.3895 127.75 43.2837C127.422 43.1779 127.062 43.125 126.671 43.125C126.029 43.125 125.445 43.2908 124.92 43.6223C124.394 43.9537 123.976 44.4421 123.666 45.0874C123.356 45.7328 123.201 46.5244 123.201 47.4624C123.201 48.4004 123.358 49.1921 123.671 49.8374C123.985 50.4828 124.41 50.9712 124.946 51.3026C125.482 51.6341 126.085 51.7998 126.755 51.7998C127.376 51.7998 127.922 51.6676 128.395 51.4031C128.871 51.1351 129.241 50.7578 129.506 50.2712C129.774 49.781 129.908 49.2045 129.908 48.5415L130.31 48.6261H127.051V47.4624H131.177V48.6261C131.177 49.5183 130.987 50.2941 130.606 50.9535C130.229 51.6129 129.707 52.1243 129.04 52.4875C128.377 52.8472 127.616 53.027 126.755 53.027C125.796 53.027 124.953 52.8013 124.227 52.35C123.504 51.8986 122.94 51.2568 122.534 50.4246C122.132 49.5924 121.931 48.605 121.931 47.4624C121.931 46.6055 122.046 45.835 122.275 45.1509C122.508 44.4633 122.836 43.8779 123.259 43.3948C123.682 42.9117 124.183 42.5414 124.761 42.284C125.339 42.0266 125.976 41.8979 126.671 41.8979C127.242 41.8979 127.774 41.9843 128.268 42.1571C128.765 42.3263 129.208 42.5679 129.596 42.8817C129.987 43.192 130.313 43.5641 130.574 43.9978C130.835 44.428 131.015 44.9058 131.114 45.4313H129.76ZM133.255 52.8789V44.7542H134.461V45.9814H134.545C134.693 45.5794 134.961 45.2532 135.349 45.0028C135.737 44.7524 136.175 44.6273 136.661 44.6273C136.753 44.6273 136.867 44.629 137.005 44.6325C137.143 44.6361 137.247 44.6414 137.317 44.6484V45.9179C137.275 45.9073 137.178 45.8915 137.026 45.8703C136.878 45.8456 136.721 45.8333 136.555 45.8333C136.16 45.8333 135.808 45.9161 135.498 46.0819C135.191 46.2441 134.947 46.4698 134.768 46.7589C134.591 47.0446 134.503 47.3708 134.503 47.7375V52.8789H133.255ZM141.85 53.0482C141.117 53.0482 140.473 52.8736 139.92 52.5245C139.369 52.1754 138.939 51.687 138.629 51.0593C138.322 50.4316 138.169 49.6981 138.169 48.8589C138.169 48.0126 138.322 47.2738 138.629 46.6426C138.939 46.0113 139.369 45.5212 139.92 45.1721C140.473 44.823 141.117 44.6484 141.85 44.6484C142.584 44.6484 143.225 44.823 143.776 45.1721C144.329 45.5212 144.759 46.0113 145.066 46.6426C145.377 47.2738 145.532 48.0126 145.532 48.8589C145.532 49.6981 145.377 50.4316 145.066 51.0593C144.759 51.687 144.329 52.1754 143.776 52.5245C143.225 52.8736 142.584 53.0482 141.85 53.0482ZM141.85 51.9268C142.407 51.9268 142.866 51.784 143.225 51.4983C143.585 51.2127 143.851 50.8372 144.024 50.3717C144.197 49.9062 144.283 49.4019 144.283 48.8589C144.283 48.3158 144.197 47.8098 144.024 47.3408C143.851 46.8718 143.585 46.4927 143.225 46.2035C142.866 45.9144 142.407 45.7698 141.85 45.7698C141.293 45.7698 140.835 45.9144 140.475 46.2035C140.115 46.4927 139.849 46.8718 139.676 47.3408C139.503 47.8098 139.417 48.3158 139.417 48.8589C139.417 49.4019 139.503 49.9062 139.676 50.3717C139.849 50.8372 140.115 51.2127 140.475 51.4983C140.835 51.784 141.293 51.9268 141.85 51.9268ZM152.558 49.5571V44.7542H153.806V52.8789H152.558V51.5036H152.473C152.282 51.9162 151.986 52.2671 151.584 52.5562C151.182 52.8419 150.674 52.9847 150.061 52.9847C149.553 52.9847 149.102 52.8736 148.707 52.6515C148.312 52.4258 148.001 52.0872 147.776 51.6359C147.55 51.181 147.437 50.6079 147.437 49.9168V44.7542H148.686V49.8321C148.686 50.4246 148.851 50.8971 149.183 51.2497C149.518 51.6024 149.944 51.7787 150.463 51.7787C150.773 51.7787 151.089 51.6993 151.41 51.5407C151.734 51.382 152.006 51.1387 152.224 50.8107C152.446 50.4828 152.558 50.0649 152.558 49.5571ZM156.092 55.9257V44.7542H157.298V46.0448H157.446C157.538 45.9038 157.665 45.724 157.827 45.5053C157.993 45.2832 158.229 45.0857 158.536 44.9129C158.846 44.7366 159.266 44.6484 159.795 44.6484C160.479 44.6484 161.082 44.8194 161.604 45.1615C162.126 45.5036 162.533 45.9884 162.826 46.6161C163.118 47.2438 163.265 47.9843 163.265 48.8377C163.265 49.6981 163.118 50.444 162.826 51.0752C162.533 51.7029 162.128 52.1895 161.609 52.5351C161.091 52.8771 160.493 53.0482 159.816 53.0482C159.294 53.0482 158.876 52.9618 158.562 52.789C158.249 52.6127 158.007 52.4134 157.838 52.1913C157.669 51.9656 157.538 51.7787 157.446 51.6306H157.341V55.9257H156.092ZM157.319 48.8166C157.319 49.4301 157.409 49.9714 157.589 50.4404C157.769 50.9059 158.032 51.2709 158.377 51.5354C158.723 51.7963 159.146 51.9268 159.647 51.9268C160.169 51.9268 160.604 51.7893 160.953 51.5142C161.306 51.2356 161.57 50.8618 161.747 50.3928C161.927 49.9203 162.017 49.3949 162.017 48.8166C162.017 48.2453 161.928 47.7304 161.752 47.272C161.579 46.8101 161.317 46.4451 160.964 46.1771C160.615 45.9056 160.176 45.7698 159.647 45.7698C159.139 45.7698 158.712 45.8985 158.367 46.1559C158.021 46.4098 157.76 46.766 157.584 47.2244C157.408 47.6793 157.319 48.21 157.319 48.8166Z" fill="#AA97D5"/>
<rect x="31.751" y="73.0124" width="222.498" height="285.803" rx="6.98216" fill="#AA97D5" fill-opacity="0.1" stroke="#603BB7" stroke-width="0.930955" stroke-dasharray="1.86 1.86"/>
<circle r="55" transform="matrix(-1 0 0 1 259 55)" fill="#B2CEC7" fill-opacity="0.5"/>
<circle r="102.5" transform="matrix(-1 0 0 1 388.573 108.5)" fill="#603BB7"/>
<g clip-path="url(#clip0_1944_27096)">
<path d="M340.33 136.441H377.292V195.627H340.33V136.441Z" fill="#B2B2B2"/>
<path d="M377.147 136.441H414.109V195.627H377.147V136.441Z" fill="#D1D1D1"/>
<path d="M396.511 64.668L398.087 96.4821L405.496 119.812H392.157L385.229 99.7108L383.064 76.8668L396.511 64.668Z" fill="#F7EBE7"/>
<path d="M396.885 175.863L394.203 188.475L403.212 189.555L405.774 177.138L396.885 175.863Z" fill="#FCC9A7"/>
<path d="M393.658 187.336C393.887 186.656 394.609 186.413 395.102 186.85C396.064 187.712 397.796 188.768 400.358 188.513C403.016 188.246 404.015 186.668 404.4 185.527C404.604 184.932 405.169 184.629 405.674 184.884L421.804 193.065C422.778 193.563 423.548 194.485 423.933 195.638C424.294 196.718 423.572 197.884 422.562 197.859L394.693 197.083C393.598 197.058 392.756 195.966 392.853 194.704L393.31 188.513C393.322 188.416 393.334 188.307 393.37 188.21L393.658 187.336Z" fill="#1F252A"/>
<path d="M397.042 114.886H417.959C417.959 114.886 430.696 114.169 431.454 124.717C432.212 135.266 412.775 165.441 409.731 181.56L392.243 180.104L404.836 136.273L373.515 136.455C371.194 136.467 368.884 136.127 366.695 135.363C360.597 133.226 351.287 130.168 356.363 113.223L397.042 114.886Z" fill="#092330"/>
<path d="M380.898 175.914L376.639 190.99L385.649 192.07L389.786 177.189L380.898 175.914Z" fill="#FCC9A7"/>
<path d="M376.1 189.843C376.328 189.164 377.05 188.921 377.543 189.358C378.505 190.22 380.237 191.276 382.799 191.021C385.457 190.754 386.456 189.176 386.841 188.035C387.045 187.44 387.61 187.137 388.116 187.392L404.245 195.573C405.22 196.07 405.989 196.993 406.374 198.146C406.735 199.226 406.013 200.391 405.003 200.367L376.653 199.59C375.558 199.566 374.716 198.474 374.813 197.211L375.763 191.021C375.775 190.924 375.787 190.814 375.823 190.717L376.1 189.843Z" fill="#1F252A"/>
<path d="M372.047 52.1641C371.578 52.6253 350.589 58.0268 350.589 58.0268L355.075 70.0557L378.025 68.3078L372.047 52.1641Z" fill="#F7EBE7"/>
<path d="M380.705 55.0664C380.705 55.0664 394.381 60.1037 396.51 64.6677C395.776 71.1131 393.527 77.3157 389.822 82.62C385.276 89.1261 379.659 100.305 380.693 114.883H341.157C341.157 114.883 343.286 73.8684 354.989 58.1252L380.705 55.0664Z" fill="#F7EBE7"/>
<path d="M376.22 61.5706C372.335 60.7695 369.833 56.9459 370.627 53.0252L372.948 41.5547L387.009 44.4557L384.688 55.9263C383.894 59.8469 380.105 62.3716 376.22 61.5706Z" fill="#FCC9A7"/>
<path d="M371.981 45.5625C371.981 45.5625 373.46 54.8603 380.629 55.4187C386.908 55.9042 386.306 46.7399 386.306 46.7399L371.981 45.5625Z" fill="#F4BE9A"/>
<path d="M380.067 50.3229L378.829 50.0316C372.61 48.575 368.737 42.3117 370.18 36.0485L371.816 28.8991C373.26 22.6236 379.466 18.7152 385.672 20.1717L386.911 20.4631C393.13 21.9196 397.003 28.1829 395.56 34.4462L393.924 41.5956C392.48 47.871 386.274 51.7795 380.067 50.3229Z" fill="#FCC9A7"/>
<path d="M374.078 39.0178C374.367 39.5155 374.644 40.2681 374.74 41.409C374.848 42.8535 375.57 44.2251 376.772 45.0262C380.225 47.3325 382.859 41.494 387.958 42.5258C387.958 42.5258 389.955 42.8292 390.352 45.0748C390.749 47.3082 393.528 43.3997 394.141 40.7293C394.754 38.0589 395.067 53.9478 382.51 52.6004C382.51 52.6004 376.171 52.3941 371.901 45.8759C371.432 45.1597 371.155 44.3222 371.131 43.4604C371.095 42.1859 371.276 40.2559 372.478 38.8722C372.899 38.3624 373.741 38.4352 374.078 39.0178Z" fill="#1C2226"/>
<path d="M374.065 35.414C374.065 35.414 379.489 33.6054 378.575 25.6063C378.575 25.6063 392.047 38.4728 402.03 29.0293C402.03 29.0293 397.567 27.8276 395.727 24.7445C392.371 19.1246 382.725 11.3804 375.003 20.3384C375.003 20.3384 365.609 18.8697 368.303 33.4719L374.065 35.414Z" fill="#1C2226"/>
<path d="M374.064 35.4141C373.547 37.6475 371.334 39.0434 369.12 38.5336C366.895 38.0117 365.524 35.7782 366.029 33.5448C366.547 31.3114 368.76 29.9155 370.973 30.4253C373.198 30.9473 374.581 33.1807 374.064 35.4141Z" fill="#FCC9A7"/>
<path d="M380.923 61.1211L375.114 61.2303L379.179 69.727L383.569 61.5823L380.923 61.1211Z" fill="#0C2C40"/>
<path d="M370.135 52.5417L377.617 61.354L372.746 66.9982L363.785 54.5687C363.785 54.5687 366.082 50.8423 370.135 52.5417Z" fill="#FFF7F3"/>
<path d="M380.92 61.1216L385.226 66.0254L388.257 58.3784C388.257 58.3784 387.463 54.9433 384.986 55.5988L380.92 61.1216Z" fill="#FFF7F3"/>
<path d="M379.336 66.9863C379.336 66.9863 384.953 81.7705 383.557 102.745L378.025 107.843L371.566 101.568L378.53 66.0273L379.336 66.9863Z" fill="#0C2C40"/>
<path d="M368.834 102.094L380.862 106.087L381.656 113.212L365.707 108.406L368.834 102.094Z" fill="#FCC9A7"/>
<path d="M379.07 110.792C379.07 114.956 382.414 118.342 386.552 118.342C390.677 118.342 394.033 114.968 394.033 110.792C394.033 106.629 390.689 103.242 386.552 103.242C382.426 103.242 379.07 106.617 379.07 110.792Z" fill="#FCC9A7"/>
<path d="M380.704 114.882H401.608C401.608 114.882 414.346 114.166 415.104 124.714C415.862 135.262 394.993 167.379 391.95 183.487L374.461 182.03L388.486 136.257L357.165 136.439C354.843 136.452 352.534 136.112 350.345 135.347C344.247 133.211 334.937 130.152 340.013 113.207L380.704 114.882Z" fill="#0C2C40"/>
<path d="M443.768 77.582H407.623C406.433 77.582 405.41 78.4196 405.158 79.597L398.35 111.812C398.013 113.39 399.216 114.883 400.816 114.883H437.561C438.764 114.883 439.798 114.021 440.027 112.831L446.233 80.6166C446.546 79.0386 445.355 77.582 443.768 77.582Z" fill="#B2B2B2"/>
<path d="M445.849 77.582H409.717C408.526 77.582 407.504 78.4196 407.251 79.597L400.444 111.812C400.107 113.39 401.297 114.883 402.909 114.883H439.643C440.846 114.883 441.88 114.021 442.109 112.831L448.315 80.6166C448.628 79.0386 447.437 77.582 445.849 77.582Z" fill="#D1D1D1"/>
<path d="M399.336 112.125H374.642C373.884 112.125 373.283 112.744 373.283 113.497C373.283 114.261 373.896 114.868 374.642 114.868H399.817L399.336 112.125Z" fill="#B2B2B2"/>
<path d="M423.477 95.391C423.477 97.5881 425.233 99.3602 427.41 99.3602C429.587 99.3602 431.343 97.5759 431.343 95.391C431.343 93.194 429.575 91.4219 427.41 91.4219C425.233 91.4219 423.477 93.194 423.477 95.391Z" fill="white"/>
<path d="M359.214 69.4851L346.007 91.006L377.617 102.392L373.287 111.835C373.287 111.835 346.26 108.776 333.197 98.6167C331.994 97.682 331.393 96.1648 331.598 94.6475C332.211 89.7922 334.833 78.0061 346.007 61.2554C348.28 57.8446 352.803 56.8129 356.327 58.8763C359.996 61.0127 361.283 65.7465 359.214 69.4851Z" fill="#F7EBE7"/>
<path d="M369.207 99.3604L346.005 91.0093L357.612 72.0859" stroke="#EADDD8" stroke-width="1.06897" stroke-miterlimit="10" stroke-linecap="round" stroke-linejoin="round"/>
<path d="M384.918 92.2369L390.632 77.0156" stroke="#EADDD8" stroke-width="1.06897" stroke-miterlimit="10" stroke-linecap="round" stroke-linejoin="round"/>
<path d="M368.836 111.194C368.836 111.194 351.083 108.948 342.134 103.777" stroke="#EADDD8" stroke-width="1.06897" stroke-miterlimit="10" stroke-linecap="round" stroke-linejoin="round"/>
</g>
<g filter="url(#filter0_d_1944_27096)">
<rect x="162" y="189" width="204" height="40" rx="3.72382" fill="white" shape-rendering="crispEdges"/>
<path d="M189.929 202.035H175.033C174.786 202.035 174.55 202.133 174.375 202.308C174.2 202.482 174.102 202.719 174.102 202.966V205.759C174.102 206.006 174.2 206.243 174.375 206.417C174.55 206.592 174.786 206.69 175.033 206.69C175.28 206.69 175.517 206.592 175.692 206.417C175.866 206.243 175.964 206.006 175.964 205.759V203.897H181.55V215.999H179.688C179.441 215.999 179.204 216.098 179.03 216.272C178.855 216.447 178.757 216.684 178.757 216.93C178.757 217.177 178.855 217.414 179.03 217.589C179.204 217.763 179.441 217.861 179.688 217.861H185.274C185.521 217.861 185.758 217.763 185.932 217.589C186.107 217.414 186.205 217.177 186.205 216.93C186.205 216.684 186.107 216.447 185.932 216.272C185.758 216.098 185.521 215.999 185.274 215.999H183.412V203.897H188.998V205.759C188.998 206.006 189.096 206.243 189.27 206.417C189.445 206.592 189.682 206.69 189.929 206.69C190.176 206.69 190.412 206.592 190.587 206.417C190.762 206.243 190.86 206.006 190.86 205.759V202.966C190.86 202.719 190.762 202.482 190.587 202.308C190.412 202.133 190.176 202.035 189.929 202.035Z" fill="#B2B2B2"/>
<g clip-path="url(#clip1_1944_27096)">
<path d="M223.443 202.034C227.548 202.034 230.891 205.376 230.891 209.481C230.891 213.587 227.548 216.929 223.443 216.929C219.337 216.929 215.995 213.587 215.995 209.481C215.995 205.376 219.337 202.034 223.443 202.034ZM223.443 200.172C218.304 200.172 214.133 204.343 214.133 209.481C214.133 214.62 218.304 218.791 223.443 218.791C228.582 218.791 232.753 214.62 232.753 209.481C232.753 204.343 228.582 200.172 223.443 200.172Z" fill="#B2B2B2"/>
</g>
<g clip-path="url(#clip2_1944_27096)">
<path d="M264.405 218.791C259.275 218.791 255.095 214.611 255.095 209.481C255.095 204.352 259.275 200.172 264.405 200.172C269.535 200.172 273.715 203.933 273.715 208.55C273.715 211.632 271.21 214.136 268.129 214.136H266.481C266.22 214.136 266.016 214.341 266.016 214.602C266.016 214.713 266.062 214.816 266.137 214.909C266.518 215.346 266.732 215.896 266.732 216.464C266.732 217.748 265.69 218.791 264.405 218.791ZM264.405 202.034C260.299 202.034 256.957 205.376 256.957 209.481C256.957 213.587 260.299 216.929 264.405 216.929C264.666 216.929 264.87 216.724 264.87 216.464C264.87 216.315 264.796 216.203 264.74 216.138C264.358 215.71 264.154 215.16 264.154 214.602C264.154 213.317 265.196 212.274 266.481 212.274H268.129C270.186 212.274 271.853 210.608 271.853 208.55C271.853 204.957 268.511 202.034 264.405 202.034Z" fill="#B2B2B2"/>
<path d="M259.285 210.41C260.056 210.41 260.681 209.785 260.681 209.014C260.681 208.242 260.056 207.617 259.285 207.617C258.514 207.617 257.888 208.242 257.888 209.014C257.888 209.785 258.514 210.41 259.285 210.41Z" fill="#B2B2B2"/>
<path d="M262.078 206.687C262.849 206.687 263.474 206.062 263.474 205.291C263.474 204.52 262.849 203.895 262.078 203.895C261.306 203.895 260.681 204.52 260.681 205.291C260.681 206.062 261.306 206.687 262.078 206.687Z" fill="#B2B2B2"/>
<path d="M266.732 206.687C267.504 206.687 268.129 206.062 268.129 205.291C268.129 204.52 267.504 203.895 266.732 203.895C265.961 203.895 265.336 204.52 265.336 205.291C265.336 206.062 265.961 206.687 266.732 206.687Z" fill="#B2B2B2"/>
<path d="M269.525 210.41C270.297 210.41 270.922 209.785 270.922 209.014C270.922 208.242 270.297 207.617 269.525 207.617C268.754 207.617 268.129 208.242 268.129 209.014C268.129 209.785 268.754 210.41 269.525 210.41Z" fill="#B2B2B2"/>
</g>
<g clip-path="url(#clip3_1944_27096)">
<path d="M311.884 202.963V215.997H298.85V202.963H311.884ZM311.884 201.102H298.85C297.826 201.102 296.989 201.939 296.989 202.963V215.997C296.989 217.021 297.826 217.859 298.85 217.859H311.884C312.908 217.859 313.746 217.021 313.746 215.997V202.963C313.746 201.939 312.908 201.102 311.884 201.102ZM307.359 209.35L304.566 212.953L302.574 210.541L299.781 214.135H310.953L307.359 209.35Z" fill="#B2B2B2"/>
</g>
<path d="M348.424 207.387V204.594H341.442V211.576H344.234V214.369H351.217V207.387H348.424ZM342.838 205.99H347.027V210.179H342.838V205.99ZM349.82 212.972H345.631V211.576H348.424V208.783H349.82V212.972Z" fill="#B2B2B2"/>
<path d="M356.104 203.896V199.707H351.915V201.103H340.743V199.707H336.554V203.896H337.951V215.068H336.554V219.257H340.743V217.861H351.915V219.257H356.104V215.068H354.708V203.896H356.104ZM353.311 201.103H354.708V202.5H353.311V201.103ZM337.951 201.103H339.347V202.5H337.951V201.103ZM339.347 217.861H337.951V216.464H339.347V217.861ZM354.708 217.861H353.311V216.464H354.708V217.861ZM353.311 215.068H351.915V216.464H340.743V215.068H339.347V203.896H340.743V202.5H351.915V203.896H353.311V215.068Z" fill="#B2B2B2"/>
</g>
<defs>
<filter id="filter0_d_1944_27096" x="147" y="179" width="234" height="70" filterUnits="userSpaceOnUse" color-interpolation-filters="sRGB">
<feFlood flood-opacity="0" result="BackgroundImageFix"/>
<feColorMatrix in="SourceAlpha" type="matrix" values="0 0 0 0 0 0 0 0 0 0 0 0 0 0 0 0 0 0 127 0" result="hardAlpha"/>
<feOffset dy="5"/>
<feGaussianBlur stdDeviation="7.5"/>
<feComposite in2="hardAlpha" operator="out"/>
<feColorMatrix type="matrix" values="0 0 0 0 0 0 0 0 0 0 0 0 0 0 0 0 0 0 0.1 0"/>
<feBlend mode="normal" in2="BackgroundImageFix" result="effect1_dropShadow_1944_27096"/>
<feBlend mode="normal" in="SourceGraphic" in2="effect1_dropShadow_1944_27096" result="shape"/>
</filter>
<clipPath id="clip0_1944_27096">
<rect width="117.875" height="184.5" fill="white" transform="matrix(-1 0 0 1 448.365 16.25)"/>
</clipPath>
<clipPath id="clip1_1944_27096">
<rect width="22.3429" height="22.3429" fill="white" transform="translate(212.272 198.309)"/>
</clipPath>
<clipPath id="clip2_1944_27096">
<rect width="22.3429" height="22.3429" fill="white" transform="translate(253.234 198.309)"/>
</clipPath>
<clipPath id="clip3_1944_27096">
<rect width="22.3429" height="22.3429" fill="white" transform="translate(294.196 198.309)"/>
</clipPath>
</defs>
</svg>
