<svg width="48" height="48" viewBox="0 0 48 48" fill="none" xmlns="http://www.w3.org/2000/svg">
<path d="M45 27V24H36V39H39V33H43.5V30H39V27H45ZM28.5 39H22.5V24H28.5C29.6931 24.0012 30.837 24.4757 31.6807 25.3193C32.5243 26.163 32.9988 27.3069 33 28.5V34.5C32.9988 35.6931 32.5243 36.837 31.6807 37.6807C30.837 38.5243 29.6931 38.9988 28.5 39ZM25.5 36H28.5C28.8977 35.9996 29.279 35.8414 29.5602 35.5602C29.8414 35.279 29.9996 34.8977 30 34.5V28.5C29.9996 28.1023 29.8414 27.721 29.5602 27.4398C29.279 27.1586 28.8977 27.0004 28.5 27H25.5V36ZM16.5 24H9V39H12V34.5H16.5C17.2953 34.4988 18.0577 34.1824 18.62 33.62C19.1824 33.0577 19.4988 32.2953 19.5 31.5V27C19.4992 26.2046 19.1829 25.442 18.6204 24.8796C18.058 24.3171 17.2954 24.0008 16.5 24ZM12 31.5V27H16.5L16.5015 31.5H12Z" fill="#375DBE"/>
<path d="M33 21.0005V15.0005C33.0053 14.8034 32.9678 14.6074 32.8901 14.4262C32.8124 14.2449 32.6964 14.0826 32.55 13.9505L22.05 3.45051C21.9179 3.30403 21.7557 3.18794 21.5744 3.11025C21.3931 3.03256 21.1971 2.99512 21 3.00051H6C5.20508 3.00288 4.4434 3.31972 3.8813 3.88181C3.31921 4.44391 3.00237 5.20559 3 6.00051V42.0005C3 42.7962 3.31607 43.5592 3.87868 44.1218C4.44129 44.6844 5.20435 45.0005 6 45.0005H30V42.0005H6V6.00051H18V15.0005C18.0024 15.7954 18.3192 16.5571 18.8813 17.1192C19.4434 17.6813 20.2051 17.9981 21 18.0005H30V21.0005H33ZM21 15.0005V6.60051L29.4 15.0005H21Z" fill="#375DBE"/>
</svg>
