<svg width="268" height="237" viewBox="0 0 268 237" fill="none" xmlns="http://www.w3.org/2000/svg">
<path d="M268 102.5C268 159.109 222.109 205 165.5 205C108.891 205 63 159.109 63 102.5C63 45.8908 108.891 0 165.5 0C222.109 0 268 45.8908 268 102.5ZM119.791 102.5C119.791 127.744 140.256 148.209 165.5 148.209C190.744 148.209 211.209 127.744 211.209 102.5C211.209 77.2555 190.744 56.7908 165.5 56.7908C140.256 56.7908 119.791 77.2555 119.791 102.5Z" fill="#EEF0FA" fill-opacity="0.3"/>
<path d="M166 17C145.466 17 125.61 24.3471 110.021 37.7129C94.4331 51.0787 84.1415 69.581 81.0075 89.8744C77.8736 110.168 82.1041 130.913 92.9341 148.358C103.764 165.804 120.479 178.799 140.056 184.993L146.271 165.351C131.384 160.64 118.674 150.758 110.438 137.492C102.203 124.226 98.9856 108.451 101.369 93.0188C103.752 77.587 111.578 63.5173 123.432 53.3535C135.286 43.1896 150.385 37.6026 166 37.6026V17Z" fill="#FFCC91" fill-opacity="0.3"/>
<path d="M101.016 46.6696C109.164 37.2701 119.254 29.75 130.59 24.6282C141.926 19.5064 154.238 16.9047 166.677 17.0027L166.515 37.6047C157.056 37.5302 147.693 39.5086 139.073 43.4034C130.453 47.2982 122.78 53.0167 116.584 60.1644L101.016 46.6696Z" fill="#97A5EB"/>
<path d="M166 17C178.474 17 190.798 19.7135 202.118 24.9522C213.439 30.1909 223.484 37.8295 231.557 47.3382C239.631 56.8468 245.539 67.9979 248.872 80.018C252.206 92.038 252.884 104.639 250.861 116.948C248.838 129.257 244.162 140.978 237.157 151.298C230.151 161.619 220.985 170.293 210.292 176.717C199.6 183.141 187.639 187.163 175.237 188.502C162.836 189.842 150.291 188.468 138.473 184.476L145.068 164.957C154.054 167.993 163.594 169.038 173.024 168.019C182.455 167 191.551 163.942 199.681 159.057C207.812 154.172 214.783 147.576 220.11 139.728C225.437 131.88 228.993 122.966 230.532 113.606C232.07 104.247 231.554 94.6641 229.019 85.5237C226.484 76.3832 221.991 67.9035 215.852 60.6728C209.713 53.4421 202.074 47.6335 193.466 43.6498C184.857 39.6661 175.485 37.6026 166 37.6026V17Z" fill="#5570F1"/>
<path d="M80 190.68L74.36 185.04L62.96 197.88C54.72 188.6 43.32 183 30.44 183C18.88 183 8.28 187.64 0 195L5.68 200.68C12.48 194.72 21.08 191 30.44 191C41.4 191 50.8 196.04 57.52 203.96L46 216.92L30 200.92L0 230.96L6 236.96L30 212.92L46 228.92L62.2 210.72C65.2 216.12 67.2 222.32 67.96 228.92H76C75.12 219.72 72.2 211.36 67.84 204.36L80 190.68Z" fill="#D9D9D9" fill-opacity="0.3"/>
</svg>
