<svg width="441" height="262" viewBox="0 0 441 262" fill="none" xmlns="http://www.w3.org/2000/svg">
<path d="M3.64062 3V11H2.67188V4.01562H2.625L0.671875 5.3125V4.32812L2.67188 3H3.64062ZM8.55078 11.1094C7.96224 11.1094 7.46094 10.9492 7.04688 10.6289C6.63281 10.306 6.31641 9.83854 6.09766 9.22656C5.87891 8.61198 5.76953 7.86979 5.76953 7C5.76953 6.13542 5.87891 5.39714 6.09766 4.78516C6.31901 4.17057 6.63672 3.70182 7.05078 3.37891C7.46745 3.05339 7.96745 2.89062 8.55078 2.89062C9.13411 2.89062 9.63281 3.05339 10.0469 3.37891C10.4635 3.70182 10.7813 4.17057 11 4.78516C11.2214 5.39714 11.332 6.13542 11.332 7C11.332 7.86979 11.2227 8.61198 11.0039 9.22656C10.7852 9.83854 10.4687 10.306 10.0547 10.6289C9.64063 10.9492 9.13932 11.1094 8.55078 11.1094ZM8.55078 10.25C9.13411 10.25 9.58724 9.96875 9.91016 9.40625C10.2331 8.84375 10.3945 8.04167 10.3945 7C10.3945 6.30729 10.3203 5.71745 10.1719 5.23047C10.026 4.74349 9.8151 4.3724 9.53906 4.11719C9.26563 3.86198 8.9362 3.73437 8.55078 3.73437C7.97266 3.73437 7.52083 4.01953 7.19531 4.58984C6.86979 5.15755 6.70703 5.96094 6.70703 7C6.70703 7.69271 6.77995 8.28125 6.92578 8.76562C7.07161 9.25 7.28125 9.61849 7.55469 9.87109C7.83073 10.1237 8.16276 10.25 8.55078 10.25ZM15.4258 11.1094C14.8372 11.1094 14.3359 10.9492 13.9219 10.6289C13.5078 10.306 13.1914 9.83854 12.9727 9.22656C12.7539 8.61198 12.6445 7.86979 12.6445 7C12.6445 6.13542 12.7539 5.39714 12.9727 4.78516C13.194 4.17057 13.5117 3.70182 13.9258 3.37891C14.3424 3.05339 14.8424 2.89062 15.4258 2.89062C16.0091 2.89062 16.5078 3.05339 16.9219 3.37891C17.3385 3.70182 17.6563 4.17057 17.875 4.78516C18.0964 5.39714 18.207 6.13542 18.207 7C18.207 7.86979 18.0977 8.61198 17.8789 9.22656C17.6602 9.83854 17.3437 10.306 16.9297 10.6289C16.5156 10.9492 16.0143 11.1094 15.4258 11.1094ZM15.4258 10.25C16.0091 10.25 16.4622 9.96875 16.7852 9.40625C17.1081 8.84375 17.2695 8.04167 17.2695 7C17.2695 6.30729 17.1953 5.71745 17.0469 5.23047C16.901 4.74349 16.6901 4.3724 16.4141 4.11719C16.1406 3.86198 15.8112 3.73437 15.4258 3.73437C14.8477 3.73437 14.3958 4.01953 14.0703 4.58984C13.7448 5.15755 13.582 5.96094 13.582 7C13.582 7.69271 13.6549 8.28125 13.8008 8.76562C13.9466 9.25 14.1563 9.61849 14.4297 9.87109C14.7057 10.1237 15.0378 10.25 15.4258 10.25Z" fill="#A6A8B1"/>
<path d="M8.7373 54.1094C8.20085 54.1094 7.72689 54.0143 7.31543 53.8242C6.90658 53.6315 6.58757 53.3672 6.3584 53.0312C6.12923 52.6927 6.01595 52.3073 6.01855 51.875C6.01595 51.5365 6.08236 51.224 6.21777 50.9375C6.35319 50.6484 6.53809 50.4076 6.77246 50.2148C7.00944 50.0195 7.27376 49.8958 7.56543 49.8438V49.7969C7.18262 49.6979 6.87793 49.4831 6.65137 49.1523C6.4248 48.819 6.31283 48.4401 6.31543 48.0156C6.31283 47.6094 6.41569 47.2461 6.62402 46.9258C6.83236 46.6055 7.11882 46.3529 7.4834 46.168C7.85059 45.9831 8.26855 45.8906 8.7373 45.8906C9.20085 45.8906 9.61491 45.9831 9.97949 46.168C10.3441 46.3529 10.6305 46.6055 10.8389 46.9258C11.0498 47.2461 11.1566 47.6094 11.1592 48.0156C11.1566 48.4401 11.0407 48.819 10.8115 49.1523C10.585 49.4831 10.2842 49.6979 9.90918 49.7969V49.8438C10.1982 49.8958 10.4587 50.0195 10.6904 50.2148C10.9222 50.4076 11.1071 50.6484 11.2451 50.9375C11.3831 51.224 11.4535 51.5365 11.4561 51.875C11.4535 52.3073 11.3363 52.6927 11.1045 53.0312C10.8753 53.3672 10.5563 53.6315 10.1475 53.8242C9.74121 54.0143 9.27116 54.1094 8.7373 54.1094ZM8.7373 53.25C9.09928 53.25 9.41178 53.1914 9.6748 53.0742C9.93783 52.957 10.141 52.7917 10.2842 52.5781C10.4274 52.3646 10.5003 52.1146 10.5029 51.8281C10.5003 51.526 10.4222 51.2591 10.2686 51.0273C10.1149 50.7956 9.90527 50.6133 9.63965 50.4805C9.37663 50.3477 9.07585 50.2812 8.7373 50.2812C8.39616 50.2812 8.09147 50.3477 7.82324 50.4805C7.55762 50.6133 7.34798 50.7956 7.19434 51.0273C7.04329 51.2591 6.96908 51.526 6.97168 51.8281C6.96908 52.1146 7.03809 52.3646 7.17871 52.5781C7.32194 52.7917 7.52637 52.957 7.79199 53.0742C8.05762 53.1914 8.37272 53.25 8.7373 53.25ZM8.7373 49.4531C9.02376 49.4531 9.27767 49.3958 9.49902 49.2812C9.72298 49.1667 9.89876 49.0065 10.0264 48.8008C10.154 48.5951 10.2191 48.3542 10.2217 48.0781C10.2191 47.8073 10.1553 47.5716 10.0303 47.3711C9.90527 47.168 9.7321 47.0117 9.51074 46.9023C9.28939 46.7904 9.03158 46.7344 8.7373 46.7344C8.43783 46.7344 8.17611 46.7904 7.95215 46.9023C7.72819 47.0117 7.55501 47.168 7.43262 47.3711C7.31022 47.5716 7.25033 47.8073 7.25293 48.0781C7.25033 48.3542 7.31152 48.5951 7.43652 48.8008C7.56413 49.0065 7.73991 49.1667 7.96387 49.2812C8.18783 49.3958 8.44564 49.4531 8.7373 49.4531ZM15.5625 54.1094C14.974 54.1094 14.4727 53.9492 14.0586 53.6289C13.6445 53.306 13.3281 52.8385 13.1094 52.2266C12.8906 51.612 12.7813 50.8698 12.7813 50C12.7813 49.1354 12.8906 48.3971 13.1094 47.7852C13.3307 47.1706 13.6484 46.7018 14.0625 46.3789C14.4792 46.0534 14.9792 45.8906 15.5625 45.8906C16.1458 45.8906 16.6445 46.0534 17.0586 46.3789C17.4753 46.7018 17.793 47.1706 18.0117 47.7852C18.2331 48.3971 18.3438 49.1354 18.3438 50C18.3438 50.8698 18.2344 51.612 18.0156 52.2266C17.7969 52.8385 17.4805 53.306 17.0664 53.6289C16.6523 53.9492 16.151 54.1094 15.5625 54.1094ZM15.5625 53.25C16.1458 53.25 16.599 52.9687 16.9219 52.4062C17.2448 51.8437 17.4063 51.0417 17.4063 50C17.4063 49.3073 17.332 48.7174 17.1836 48.2305C17.0378 47.7435 16.8268 47.3724 16.5508 47.1172C16.2773 46.862 15.9479 46.7344 15.5625 46.7344C14.9844 46.7344 14.5326 47.0195 14.207 47.5898C13.8815 48.1576 13.7188 48.9609 13.7188 50C13.7188 50.6927 13.7917 51.2812 13.9375 51.7656C14.0833 52.25 14.293 52.6185 14.5664 52.8711C14.8424 53.1237 15.1745 53.25 15.5625 53.25Z" fill="#A6A8B1"/>
<path d="M8.74512 97.1094C8.41699 97.1042 8.08887 97.0417 7.76074 96.9219C7.43262 96.8021 7.13314 96.6003 6.8623 96.3164C6.59147 96.0299 6.37402 95.6432 6.20996 95.1562C6.0459 94.6667 5.96387 94.0521 5.96387 93.3125C5.96387 92.6042 6.03027 91.9766 6.16309 91.4297C6.2959 90.8802 6.48861 90.418 6.74121 90.043C6.99382 89.6654 7.2985 89.3789 7.65527 89.1836C8.01465 88.9883 8.4196 88.8906 8.87012 88.8906C9.31803 88.8906 9.71647 88.9805 10.0654 89.1602C10.417 89.3372 10.7035 89.5846 10.9248 89.9023C11.1462 90.2201 11.2894 90.5859 11.3545 91H10.4014C10.3128 90.6406 10.141 90.3424 9.88574 90.1055C9.63053 89.8685 9.29199 89.75 8.87012 89.75C8.25033 89.75 7.76204 90.0195 7.40527 90.5586C7.05111 91.0977 6.87272 91.8542 6.87012 92.8281H6.93262C7.07845 92.6068 7.25163 92.418 7.45215 92.2617C7.65527 92.1029 7.87923 91.9805 8.12402 91.8945C8.36882 91.8086 8.62793 91.7656 8.90137 91.7656C9.3597 91.7656 9.77897 91.8802 10.1592 92.1094C10.5394 92.3359 10.8441 92.6497 11.0732 93.0508C11.3024 93.4492 11.417 93.9062 11.417 94.4219C11.417 94.9167 11.3063 95.3698 11.085 95.7812C10.8636 96.1901 10.5524 96.5156 10.1514 96.7578C9.75293 96.9974 9.28418 97.1146 8.74512 97.1094ZM8.74512 96.25C9.07324 96.25 9.36751 96.168 9.62793 96.0039C9.89095 95.8398 10.098 95.6198 10.249 95.3437C10.4027 95.0677 10.4795 94.7604 10.4795 94.4219C10.4795 94.0911 10.4053 93.7904 10.2568 93.5195C10.111 93.2461 9.90918 93.0286 9.65137 92.8672C9.39616 92.7057 9.10449 92.625 8.77637 92.625C8.52897 92.625 8.2985 92.6745 8.08496 92.7734C7.87142 92.8698 7.68392 93.0026 7.52246 93.1719C7.36361 93.3411 7.23861 93.5352 7.14746 93.7539C7.05632 93.9701 7.01074 94.1979 7.01074 94.4375C7.01074 94.7552 7.08496 95.0521 7.2334 95.3281C7.38444 95.6042 7.59017 95.8268 7.85059 95.9961C8.11361 96.1654 8.41178 96.25 8.74512 96.25ZM15.5625 97.1094C14.974 97.1094 14.4727 96.9492 14.0586 96.6289C13.6445 96.306 13.3281 95.8385 13.1094 95.2266C12.8906 94.612 12.7813 93.8698 12.7813 93C12.7813 92.1354 12.8906 91.3971 13.1094 90.7852C13.3307 90.1706 13.6484 89.7018 14.0625 89.3789C14.4792 89.0534 14.9792 88.8906 15.5625 88.8906C16.1458 88.8906 16.6445 89.0534 17.0586 89.3789C17.4753 89.7018 17.793 90.1706 18.0117 90.7852C18.2331 91.3971 18.3438 92.1354 18.3438 93C18.3438 93.8698 18.2344 94.612 18.0156 95.2266C17.7969 95.8385 17.4805 96.306 17.0664 96.6289C16.6523 96.9492 16.151 97.1094 15.5625 97.1094ZM15.5625 96.25C16.1458 96.25 16.599 95.9687 16.9219 95.4062C17.2448 94.8437 17.4063 94.0417 17.4063 93C17.4063 92.3073 17.332 91.7174 17.1836 91.2305C17.0378 90.7435 16.8268 90.3724 16.5508 90.1172C16.2773 89.862 15.9479 89.7344 15.5625 89.7344C14.9844 89.7344 14.5326 90.0195 14.207 90.5898C13.8815 91.1576 13.7188 91.9609 13.7188 93C13.7188 93.6927 13.7917 94.2812 13.9375 94.7656C14.0833 95.25 14.293 95.6185 14.5664 95.8711C14.8424 96.1237 15.1745 96.25 15.5625 96.25Z" fill="#A6A8B1"/>
<path d="M5.70801 138.359V137.562L9.22363 132H9.80176V133.234H9.41113L6.75488 137.437V137.5H11.4893V138.359H5.70801ZM9.47363 140V138.117V137.746V132H10.3955V140H9.47363ZM15.5625 140.109C14.974 140.109 14.4727 139.949 14.0586 139.629C13.6445 139.306 13.3281 138.839 13.1094 138.227C12.8906 137.612 12.7813 136.87 12.7813 136C12.7813 135.135 12.8906 134.397 13.1094 133.785C13.3307 133.171 13.6484 132.702 14.0625 132.379C14.4792 132.053 14.9792 131.891 15.5625 131.891C16.1458 131.891 16.6445 132.053 17.0586 132.379C17.4753 132.702 17.793 133.171 18.0117 133.785C18.2331 134.397 18.3438 135.135 18.3438 136C18.3438 136.87 18.2344 137.612 18.0156 138.227C17.7969 138.839 17.4805 139.306 17.0664 139.629C16.6523 139.949 16.151 140.109 15.5625 140.109ZM15.5625 139.25C16.1458 139.25 16.599 138.969 16.9219 138.406C17.2448 137.844 17.4063 137.042 17.4063 136C17.4063 135.307 17.332 134.717 17.1836 134.23C17.0378 133.743 16.8268 133.372 16.5508 133.117C16.2773 132.862 15.9479 132.734 15.5625 132.734C14.9844 132.734 14.5326 133.02 14.207 133.59C13.8815 134.158 13.7188 134.961 13.7188 136C13.7188 136.693 13.7917 137.281 13.9375 137.766C14.0833 138.25 14.293 138.618 14.5664 138.871C14.8424 139.124 15.1745 139.25 15.5625 139.25Z" fill="#A6A8B1"/>
<path d="M6.29297 183V182.297L8.93359 179.406C9.24349 179.068 9.4987 178.773 9.69922 178.523C9.89974 178.271 10.0482 178.034 10.1445 177.812C10.2435 177.589 10.293 177.354 10.293 177.109C10.293 176.828 10.2253 176.585 10.0898 176.379C9.95703 176.173 9.77474 176.014 9.54297 175.902C9.3112 175.79 9.05078 175.734 8.76172 175.734C8.45443 175.734 8.1862 175.798 7.95703 175.926C7.73047 176.051 7.55469 176.227 7.42969 176.453C7.30729 176.68 7.24609 176.945 7.24609 177.25H6.32422C6.32422 176.781 6.43229 176.37 6.64844 176.016C6.86458 175.661 7.15885 175.385 7.53125 175.187C7.90625 174.99 8.32682 174.891 8.79297 174.891C9.26172 174.891 9.67708 174.99 10.0391 175.187C10.401 175.385 10.6849 175.652 10.8906 175.988C11.0964 176.324 11.1992 176.698 11.1992 177.109C11.1992 177.404 11.1458 177.691 11.0391 177.973C10.9349 178.251 10.7526 178.562 10.4922 178.906C10.2344 179.247 9.8763 179.664 9.41797 180.156L7.62109 182.078V182.141H11.3398V183H6.29297ZM15.5625 183.109C14.974 183.109 14.4727 182.949 14.0586 182.629C13.6445 182.306 13.3281 181.839 13.1094 181.227C12.8906 180.612 12.7813 179.87 12.7813 179C12.7813 178.135 12.8906 177.397 13.1094 176.785C13.3307 176.171 13.6484 175.702 14.0625 175.379C14.4792 175.053 14.9792 174.891 15.5625 174.891C16.1458 174.891 16.6445 175.053 17.0586 175.379C17.4753 175.702 17.793 176.171 18.0117 176.785C18.2331 177.397 18.3438 178.135 18.3438 179C18.3438 179.87 18.2344 180.612 18.0156 181.227C17.7969 181.839 17.4805 182.306 17.0664 182.629C16.6523 182.949 16.151 183.109 15.5625 183.109ZM15.5625 182.25C16.1458 182.25 16.599 181.969 16.9219 181.406C17.2448 180.844 17.4063 180.042 17.4063 179C17.4063 178.307 17.332 177.717 17.1836 177.23C17.0378 176.743 16.8268 176.372 16.5508 176.117C16.2773 175.862 15.9479 175.734 15.5625 175.734C14.9844 175.734 14.5326 176.02 14.207 176.59C13.8815 177.158 13.7188 177.961 13.7188 179C13.7188 179.693 13.7917 180.281 13.9375 180.766C14.0833 181.25 14.293 181.618 14.5664 181.871C14.8424 182.124 15.1745 182.25 15.5625 182.25Z" fill="#A6A8B1"/>
<rect x="52" width="13" height="178" rx="6.5" fill="#EEF0FA" fill-opacity="0.3"/>
<rect x="52" y="22.1577" width="13" height="155.842" rx="6.5" fill="#5570F1" fill-opacity="0.6"/>
<path d="M53.6973 208V202.844H52.1035C51.7441 202.844 51.4616 202.927 51.2559 203.094C51.0501 203.26 50.9473 203.49 50.9473 203.781C50.9473 204.068 51.0397 204.293 51.2246 204.457C51.4121 204.621 51.6686 204.703 51.9941 204.703H53.9316V205.562H51.9941C51.5879 205.562 51.2376 205.491 50.9434 205.348C50.6491 205.204 50.4225 205 50.2637 204.734C50.1048 204.466 50.0254 204.148 50.0254 203.781C50.0254 203.411 50.1087 203.094 50.2754 202.828C50.4421 202.562 50.6803 202.358 50.9902 202.215C51.3027 202.072 51.6738 202 52.1035 202H54.5723V208H53.6973ZM49.6973 208L51.4004 205.016H52.4004L50.6973 208H49.6973ZM60.2803 204.578V205.437H56.9678V204.578H60.2803ZM57.1865 202V208H56.2646V202H57.1865ZM60.9834 202V208H60.0615V202H60.9834ZM62.667 208V202H65.1201C65.766 202 66.279 202.146 66.6592 202.438C67.0394 202.729 67.2295 203.115 67.2295 203.594C67.2295 203.958 67.1214 204.241 66.9053 204.441C66.6891 204.639 66.4118 204.773 66.0732 204.844C66.2946 204.875 66.5094 204.953 66.7178 205.078C66.9287 205.203 67.1032 205.375 67.2412 205.594C67.3792 205.81 67.4482 206.076 67.4482 206.391C67.4482 206.698 67.3701 206.973 67.2139 207.215C67.0576 207.457 66.8337 207.648 66.542 207.789C66.2503 207.93 65.9014 208 65.4951 208H62.667ZM63.542 207.156H65.4951C65.8128 207.156 66.0615 207.081 66.2412 206.93C66.4209 206.779 66.5107 206.573 66.5107 206.312C66.5107 206.003 66.4209 205.759 66.2412 205.582C66.0615 205.402 65.8128 205.312 65.4951 205.312H63.542V207.156ZM63.542 204.516H65.1201C65.3675 204.516 65.5798 204.482 65.7568 204.414C65.9339 204.344 66.0693 204.245 66.1631 204.117C66.2594 203.987 66.3076 203.833 66.3076 203.656C66.3076 203.404 66.2021 203.206 65.9912 203.062C65.7803 202.917 65.4899 202.844 65.1201 202.844H63.542V204.516Z" fill="#BEC0CA"/>
<rect x="102" width="13" height="178" rx="6.5" fill="#EEF0FA" fill-opacity="0.3"/>
<rect x="102" y="115.958" width="13" height="62.0415" rx="6.5" fill="#5570F1" fill-opacity="0.6"/>
<path d="M102.215 210.047V200H103.137V210.047H102.215ZM102.215 208.125C101.809 208.125 101.439 208.052 101.105 207.906C100.772 207.758 100.486 207.548 100.246 207.277C100.007 207.004 99.8216 206.677 99.6914 206.297C99.5612 205.917 99.4961 205.495 99.4961 205.031C99.4961 204.562 99.5612 204.138 99.6914 203.758C99.8216 203.375 100.007 203.047 100.246 202.773C100.486 202.5 100.772 202.29 101.105 202.145C101.439 201.996 101.809 201.922 102.215 201.922H102.496V208.125H102.215ZM102.215 207.297H102.371V202.75H102.215C101.908 202.75 101.641 202.812 101.414 202.937C101.188 203.06 101 203.228 100.852 203.441C100.706 203.652 100.596 203.895 100.523 204.168C100.453 204.441 100.418 204.729 100.418 205.031C100.418 205.432 100.482 205.805 100.609 206.148C100.737 206.492 100.934 206.77 101.199 206.98C101.465 207.191 101.803 207.297 102.215 207.297ZM103.137 208.125H102.855V201.922H103.137C103.543 201.922 103.913 201.996 104.246 202.145C104.579 202.29 104.866 202.5 105.105 202.773C105.345 203.047 105.53 203.375 105.66 203.758C105.79 204.138 105.855 204.562 105.855 205.031C105.855 205.495 105.79 205.917 105.66 206.297C105.53 206.677 105.345 207.004 105.105 207.277C104.866 207.548 104.579 207.758 104.246 207.906C103.913 208.052 103.543 208.125 103.137 208.125ZM103.137 207.297C103.447 207.297 103.714 207.237 103.938 207.117C104.164 206.995 104.35 206.828 104.496 206.617C104.645 206.404 104.754 206.161 104.824 205.891C104.897 205.617 104.934 205.331 104.934 205.031C104.934 204.63 104.87 204.257 104.742 203.91C104.615 203.564 104.418 203.284 104.152 203.07C103.887 202.857 103.548 202.75 103.137 202.75H102.98V207.297H103.137ZM109.78 208.125C109.202 208.125 108.703 207.997 108.284 207.742C107.868 207.484 107.546 207.125 107.319 206.664C107.095 206.201 106.983 205.661 106.983 205.047C106.983 204.432 107.095 203.891 107.319 203.422C107.546 202.951 107.861 202.583 108.265 202.32C108.671 202.055 109.145 201.922 109.687 201.922C109.999 201.922 110.308 201.974 110.612 202.078C110.917 202.182 111.194 202.352 111.444 202.586C111.694 202.818 111.894 203.125 112.042 203.508C112.19 203.891 112.265 204.362 112.265 204.922V205.312H107.64V204.516H111.327C111.327 204.177 111.259 203.875 111.124 203.609C110.991 203.344 110.801 203.134 110.554 202.98C110.309 202.827 110.02 202.75 109.687 202.75C109.319 202.75 109.002 202.841 108.733 203.023C108.468 203.203 108.263 203.437 108.12 203.727C107.977 204.016 107.905 204.326 107.905 204.656V205.188C107.905 205.641 107.983 206.025 108.14 206.34C108.299 206.652 108.519 206.891 108.8 207.055C109.081 207.216 109.408 207.297 109.78 207.297C110.022 207.297 110.241 207.263 110.437 207.195C110.634 207.125 110.805 207.021 110.948 206.883C111.091 206.742 111.202 206.568 111.28 206.359L112.171 206.609C112.077 206.911 111.92 207.177 111.698 207.406C111.477 207.633 111.203 207.81 110.878 207.937C110.552 208.063 110.187 208.125 109.78 208.125ZM113.667 208V202H116.12C116.766 202 117.279 202.146 117.659 202.438C118.039 202.729 118.229 203.115 118.229 203.594C118.229 203.958 118.121 204.241 117.905 204.441C117.689 204.639 117.412 204.773 117.073 204.844C117.295 204.875 117.509 204.953 117.718 205.078C117.929 205.203 118.103 205.375 118.241 205.594C118.379 205.81 118.448 206.076 118.448 206.391C118.448 206.698 118.37 206.973 118.214 207.215C118.058 207.457 117.834 207.648 117.542 207.789C117.25 207.93 116.901 208 116.495 208H113.667ZM114.542 207.156H116.495C116.813 207.156 117.062 207.081 117.241 206.93C117.421 206.779 117.511 206.573 117.511 206.312C117.511 206.003 117.421 205.759 117.241 205.582C117.062 205.402 116.813 205.312 116.495 205.312H114.542V207.156ZM114.542 204.516H116.12C116.368 204.516 116.58 204.482 116.757 204.414C116.934 204.344 117.069 204.245 117.163 204.117C117.259 203.987 117.308 203.833 117.308 203.656C117.308 203.404 117.202 203.206 116.991 203.062C116.78 202.917 116.49 202.844 116.12 202.844H114.542V204.516Z" fill="#BEC0CA"/>
<rect x="156" width="13" height="180" rx="6.5" fill="#EEF0FA" fill-opacity="0.3"/>
<rect x="156" y="64.9792" width="13" height="115.021" rx="6.5" fill="#5570F1" fill-opacity="0.6"/>
<path d="M153.538 208.75L155.632 204H156.507L153.913 210H153.163L150.616 204H151.476L153.538 208.75ZM151.179 204V210H150.257V204H151.179ZM155.897 210V204H156.819V210H155.897ZM160.272 210.141C159.892 210.141 159.547 210.069 159.237 209.926C158.927 209.78 158.681 209.57 158.499 209.297C158.317 209.021 158.226 208.687 158.226 208.297C158.226 207.953 158.293 207.674 158.429 207.461C158.564 207.245 158.745 207.076 158.972 206.953C159.198 206.831 159.448 206.74 159.722 206.68C159.998 206.617 160.275 206.568 160.554 206.531C160.918 206.484 161.214 206.449 161.44 206.426C161.67 206.4 161.836 206.357 161.94 206.297C162.047 206.237 162.101 206.133 162.101 205.984V205.953C162.101 205.568 161.995 205.268 161.784 205.055C161.576 204.841 161.259 204.734 160.835 204.734C160.395 204.734 160.05 204.831 159.8 205.023C159.55 205.216 159.374 205.422 159.272 205.641L158.397 205.328C158.554 204.964 158.762 204.68 159.022 204.477C159.285 204.271 159.572 204.128 159.882 204.047C160.194 203.964 160.502 203.922 160.804 203.922C160.996 203.922 161.218 203.945 161.468 203.992C161.72 204.036 161.964 204.129 162.198 204.27C162.435 204.41 162.632 204.622 162.788 204.906C162.944 205.19 163.022 205.57 163.022 206.047V210H162.101V209.187H162.054C161.991 209.318 161.887 209.457 161.741 209.605C161.595 209.754 161.401 209.88 161.159 209.984C160.917 210.089 160.621 210.141 160.272 210.141ZM160.413 209.312C160.778 209.312 161.085 209.241 161.335 209.098C161.588 208.954 161.778 208.77 161.905 208.543C162.035 208.316 162.101 208.078 162.101 207.828V206.984C162.062 207.031 161.976 207.074 161.843 207.113C161.713 207.15 161.562 207.182 161.39 207.211C161.22 207.237 161.055 207.26 160.894 207.281C160.735 207.299 160.606 207.315 160.507 207.328C160.267 207.359 160.043 207.41 159.835 207.48C159.629 207.548 159.463 207.651 159.335 207.789C159.21 207.924 159.147 208.109 159.147 208.344C159.147 208.664 159.266 208.906 159.503 209.07C159.743 209.232 160.046 209.312 160.413 209.312ZM164.705 212.25V204H165.596V204.953H165.705C165.773 204.849 165.867 204.716 165.986 204.555C166.109 204.391 166.283 204.245 166.51 204.117C166.739 203.987 167.049 203.922 167.439 203.922C167.945 203.922 168.39 204.048 168.775 204.301C169.161 204.553 169.462 204.911 169.678 205.375C169.894 205.839 170.002 206.385 170.002 207.016C170.002 207.651 169.894 208.202 169.678 208.668C169.462 209.132 169.162 209.491 168.779 209.746C168.396 209.999 167.955 210.125 167.455 210.125C167.07 210.125 166.761 210.061 166.529 209.934C166.298 209.803 166.119 209.656 165.994 209.492C165.869 209.326 165.773 209.187 165.705 209.078H165.627V212.25H164.705ZM165.611 207C165.611 207.453 165.678 207.853 165.811 208.199C165.943 208.543 166.137 208.812 166.393 209.008C166.648 209.201 166.96 209.297 167.33 209.297C167.715 209.297 168.037 209.195 168.295 208.992C168.555 208.786 168.751 208.51 168.881 208.164C169.014 207.815 169.08 207.427 169.08 207C169.08 206.578 169.015 206.198 168.885 205.859C168.757 205.518 168.563 205.249 168.303 205.051C168.045 204.85 167.721 204.75 167.33 204.75C166.955 204.75 166.64 204.845 166.385 205.035C166.13 205.223 165.937 205.486 165.807 205.824C165.676 206.16 165.611 206.552 165.611 207ZM170.624 204.859V204H175.499V204.859H173.53V210H172.608V204.859H170.624Z" fill="#BEC0CA"/>
<rect x="209.5" width="13" height="180" rx="6.5" fill="#EEF0FA" fill-opacity="0.3"/>
<rect x="209.5" y="141.909" width="13" height="38.0913" rx="6.5" fill="#5570F1" fill-opacity="0.6"/>
<path d="M209.306 210.141C208.925 210.141 208.58 210.069 208.271 209.926C207.961 209.78 207.715 209.57 207.532 209.297C207.35 209.021 207.259 208.687 207.259 208.297C207.259 207.953 207.326 207.674 207.462 207.461C207.597 207.245 207.778 207.076 208.005 206.953C208.231 206.831 208.481 206.74 208.755 206.68C209.031 206.617 209.308 206.568 209.587 206.531C209.951 206.484 210.247 206.449 210.474 206.426C210.703 206.4 210.869 206.357 210.974 206.297C211.08 206.237 211.134 206.133 211.134 205.984V205.953C211.134 205.568 211.028 205.268 210.817 205.055C210.609 204.841 210.293 204.734 209.868 204.734C209.428 204.734 209.083 204.831 208.833 205.023C208.583 205.216 208.407 205.422 208.306 205.641L207.431 205.328C207.587 204.964 207.795 204.68 208.056 204.477C208.319 204.271 208.605 204.128 208.915 204.047C209.228 203.964 209.535 203.922 209.837 203.922C210.03 203.922 210.251 203.945 210.501 203.992C210.754 204.036 210.997 204.129 211.231 204.27C211.468 204.41 211.665 204.622 211.821 204.906C211.978 205.19 212.056 205.57 212.056 206.047V210H211.134V209.187H211.087C211.024 209.318 210.92 209.457 210.774 209.605C210.629 209.754 210.435 209.88 210.192 209.984C209.95 210.089 209.655 210.141 209.306 210.141ZM209.446 209.312C209.811 209.312 210.118 209.241 210.368 209.098C210.621 208.954 210.811 208.77 210.938 208.543C211.069 208.316 211.134 208.078 211.134 207.828V206.984C211.095 207.031 211.009 207.074 210.876 207.113C210.746 207.15 210.595 207.182 210.423 207.211C210.254 207.237 210.088 207.26 209.927 207.281C209.768 207.299 209.639 207.315 209.54 207.328C209.3 207.359 209.076 207.41 208.868 207.48C208.662 207.548 208.496 207.651 208.368 207.789C208.243 207.924 208.181 208.109 208.181 208.344C208.181 208.664 208.299 208.906 208.536 209.07C208.776 209.232 209.079 209.312 209.446 209.312ZM213.738 210V204H218.457V210H217.535V204.859H214.66V210H213.738ZM220.141 212.25V204H221.031V204.953H221.141C221.208 204.849 221.302 204.716 221.422 204.555C221.544 204.391 221.719 204.245 221.945 204.117C222.174 203.987 222.484 203.922 222.875 203.922C223.38 203.922 223.826 204.048 224.211 204.301C224.596 204.553 224.897 204.911 225.113 205.375C225.329 205.839 225.437 206.385 225.437 207.016C225.437 207.651 225.329 208.202 225.113 208.668C224.897 209.132 224.598 209.491 224.215 209.746C223.832 209.999 223.391 210.125 222.891 210.125C222.505 210.125 222.197 210.061 221.965 209.934C221.733 209.803 221.555 209.656 221.43 209.492C221.305 209.326 221.208 209.187 221.141 209.078H221.063V212.25H220.141ZM221.047 207C221.047 207.453 221.113 207.853 221.246 208.199C221.379 208.543 221.573 208.812 221.828 209.008C222.083 209.201 222.396 209.297 222.766 209.297C223.151 209.297 223.473 209.195 223.73 208.992C223.991 208.786 224.186 208.51 224.316 208.164C224.449 207.815 224.516 207.427 224.516 207C224.516 206.578 224.451 206.198 224.32 205.859C224.193 205.518 223.999 205.249 223.738 205.051C223.48 204.85 223.156 204.75 222.766 204.75C222.391 204.75 222.076 204.845 221.82 205.035C221.565 205.223 221.372 205.486 221.242 205.824C221.112 206.16 221.047 206.552 221.047 207Z" fill="#BEC0CA"/>
<rect x="260.5" width="13" height="180" rx="6.5" fill="#EEF0FA" fill-opacity="0.3"/>
<rect x="260.5" y="33.6099" width="13" height="146.39" rx="6.5" fill="#5570F1" fill-opacity="0.6"/>
<path d="M261.113 208.75L263.207 204H264.082L261.488 210H260.738L258.191 204H259.051L261.113 208.75ZM258.754 204V210H257.832V204H258.754ZM263.473 210V204H264.395V210H263.473ZM267.848 210.141C267.467 210.141 267.122 210.069 266.813 209.926C266.503 209.78 266.257 209.57 266.074 209.297C265.892 209.021 265.801 208.687 265.801 208.297C265.801 207.953 265.868 207.674 266.004 207.461C266.139 207.245 266.32 207.076 266.547 206.953C266.773 206.831 267.023 206.74 267.297 206.68C267.573 206.617 267.85 206.568 268.129 206.531C268.493 206.484 268.789 206.449 269.016 206.426C269.245 206.4 269.411 206.357 269.516 206.297C269.622 206.237 269.676 206.133 269.676 205.984V205.953C269.676 205.568 269.57 205.268 269.359 205.055C269.151 204.841 268.835 204.734 268.41 204.734C267.97 204.734 267.625 204.831 267.375 205.023C267.125 205.216 266.949 205.422 266.848 205.641L265.973 205.328C266.129 204.964 266.337 204.68 266.598 204.477C266.861 204.271 267.147 204.128 267.457 204.047C267.77 203.964 268.077 203.922 268.379 203.922C268.572 203.922 268.793 203.945 269.043 203.992C269.296 204.036 269.539 204.129 269.773 204.27C270.01 204.41 270.207 204.622 270.363 204.906C270.52 205.19 270.598 205.57 270.598 206.047V210H269.676V209.187H269.629C269.566 209.318 269.462 209.457 269.316 209.605C269.171 209.754 268.977 209.88 268.734 209.984C268.492 210.089 268.197 210.141 267.848 210.141ZM267.988 209.312C268.353 209.312 268.66 209.241 268.91 209.098C269.163 208.954 269.353 208.77 269.48 208.543C269.611 208.316 269.676 208.078 269.676 207.828V206.984C269.637 207.031 269.551 207.074 269.418 207.113C269.288 207.15 269.137 207.182 268.965 207.211C268.796 207.237 268.63 207.26 268.469 207.281C268.31 207.299 268.181 207.315 268.082 207.328C267.842 207.359 267.618 207.41 267.41 207.48C267.204 207.548 267.038 207.651 266.91 207.789C266.785 207.924 266.723 208.109 266.723 208.344C266.723 208.664 266.841 208.906 267.078 209.07C267.318 209.232 267.621 209.312 267.988 209.312ZM273.202 208.641L276.093 204H277.155V210H276.233V205.359L273.358 210H272.28V204H273.202V208.641ZM275.483 202H276.343C276.343 202.422 276.197 202.767 275.905 203.035C275.614 203.303 275.218 203.437 274.718 203.437C274.226 203.437 273.834 203.303 273.542 203.035C273.253 202.767 273.108 202.422 273.108 202H273.968C273.968 202.203 274.024 202.382 274.136 202.535C274.25 202.689 274.444 202.766 274.718 202.766C274.991 202.766 275.187 202.689 275.304 202.535C275.424 202.382 275.483 202.203 275.483 202Z" fill="#BEC0CA"/>
<rect x="315.5" width="13" height="180" rx="6.5" fill="#EEF0FA" fill-opacity="0.3"/>
<rect x="315.5" y="100.83" width="13" height="79.1701" rx="6.5" fill="#5570F1" fill-opacity="0.6"/>
<path d="M309.771 208.641L312.662 204H313.725V210H312.803V205.359L309.928 210H308.85V204H309.771V208.641ZM318.288 206.625V207.484H315.116V206.625H318.288ZM315.897 204V210H314.976V204H315.897ZM320.132 210.125C319.59 210.125 319.115 209.996 318.706 209.738C318.3 209.48 317.982 209.12 317.753 208.656C317.526 208.193 317.413 207.651 317.413 207.031C317.413 206.406 317.526 205.861 317.753 205.395C317.982 204.928 318.3 204.566 318.706 204.309C319.115 204.051 319.59 203.922 320.132 203.922C320.674 203.922 321.147 204.051 321.554 204.309C321.963 204.566 322.28 204.928 322.507 205.395C322.736 205.861 322.851 206.406 322.851 207.031C322.851 207.651 322.736 208.193 322.507 208.656C322.28 209.12 321.963 209.48 321.554 209.738C321.147 209.996 320.674 210.125 320.132 210.125ZM320.132 209.297C320.543 209.297 320.882 209.191 321.147 208.98C321.413 208.77 321.61 208.492 321.737 208.148C321.865 207.805 321.929 207.432 321.929 207.031C321.929 206.63 321.865 206.257 321.737 205.91C321.61 205.564 321.413 205.284 321.147 205.07C320.882 204.857 320.543 204.75 320.132 204.75C319.72 204.75 319.382 204.857 319.116 205.07C318.851 205.284 318.654 205.564 318.526 205.91C318.399 206.257 318.335 206.63 318.335 207.031C318.335 207.432 318.399 207.805 318.526 208.148C318.654 208.492 318.851 208.77 319.116 208.98C319.382 209.191 319.72 209.297 320.132 209.297ZM328.366 206.578V207.437H325.054V206.578H328.366ZM325.272 204V210H324.351V204H325.272ZM329.069 204V210H328.147V204H329.069ZM331.55 206.172H333.269C333.972 206.172 334.509 206.35 334.882 206.707C335.254 207.064 335.44 207.516 335.44 208.062C335.44 208.422 335.357 208.749 335.19 209.043C335.024 209.335 334.779 209.568 334.456 209.742C334.133 209.914 333.737 210 333.269 210H330.753V204H331.675V209.141H333.269C333.633 209.141 333.933 209.044 334.167 208.852C334.401 208.659 334.519 208.411 334.519 208.109C334.519 207.792 334.401 207.533 334.167 207.332C333.933 207.132 333.633 207.031 333.269 207.031H331.55V206.172Z" fill="#BEC0CA"/>
<rect x="374" width="13" height="180" rx="6.5" fill="#EEF0FA" fill-opacity="0.3"/>
<rect x="374" y="33.6099" width="13" height="146.39" rx="6.5" fill="#5570F1" fill-opacity="0.6"/>
<path d="M368.686 208.641L371.576 204H372.639V210H371.717V205.359L368.842 210H367.764V204H368.686V208.641ZM377.202 206.625V207.484H374.03V206.625H377.202ZM374.812 204V210H373.89V204H374.812ZM379.046 210.125C378.504 210.125 378.029 209.996 377.62 209.738C377.214 209.48 376.896 209.12 376.667 208.656C376.44 208.193 376.327 207.651 376.327 207.031C376.327 206.406 376.44 205.861 376.667 205.395C376.896 204.928 377.214 204.566 377.62 204.309C378.029 204.051 378.504 203.922 379.046 203.922C379.588 203.922 380.062 204.051 380.468 204.309C380.877 204.566 381.194 204.928 381.421 205.395C381.65 205.861 381.765 206.406 381.765 207.031C381.765 207.651 381.65 208.193 381.421 208.656C381.194 209.12 380.877 209.48 380.468 209.738C380.062 209.996 379.588 210.125 379.046 210.125ZM379.046 209.297C379.457 209.297 379.796 209.191 380.062 208.98C380.327 208.77 380.524 208.492 380.651 208.148C380.779 207.805 380.843 207.432 380.843 207.031C380.843 206.63 380.779 206.257 380.651 205.91C380.524 205.564 380.327 205.284 380.062 205.07C379.796 204.857 379.457 204.75 379.046 204.75C378.634 204.75 378.296 204.857 378.03 205.07C377.765 205.284 377.568 205.564 377.44 205.91C377.313 206.257 377.249 206.63 377.249 207.031C377.249 207.432 377.313 207.805 377.44 208.148C377.568 208.492 377.765 208.77 378.03 208.98C378.296 209.191 378.634 209.297 379.046 209.297ZM382.733 210V209.141H382.952C383.132 209.141 383.282 209.105 383.401 209.035C383.521 208.962 383.618 208.836 383.69 208.656C383.766 208.474 383.823 208.221 383.862 207.898C383.904 207.573 383.934 207.159 383.952 206.656L384.062 204H388.062V210H387.14V204.859H384.937L384.843 207C384.822 207.492 384.778 207.926 384.71 208.301C384.645 208.673 384.545 208.986 384.409 209.238C384.276 209.491 384.099 209.681 383.878 209.809C383.657 209.936 383.379 210 383.046 210H382.733ZM390.55 206.172H392.269C392.972 206.172 393.509 206.35 393.882 206.707C394.254 207.064 394.44 207.516 394.44 208.062C394.44 208.422 394.357 208.749 394.19 209.043C394.024 209.335 393.779 209.568 393.456 209.742C393.133 209.914 392.737 210 392.269 210H389.753V204H390.675V209.141H392.269C392.633 209.141 392.933 209.044 393.167 208.852C393.401 208.659 393.519 208.411 393.519 208.109C393.519 207.792 393.401 207.533 393.167 207.332C392.933 207.132 392.633 207.031 392.269 207.031H390.55V206.172Z" fill="#BEC0CA"/>
</svg>
