<svg width="74" height="497" viewBox="0 0 74 497" fill="none" xmlns="http://www.w3.org/2000/svg">
<path d="M73.2 457.8C73.2 463.333 72.3 468.467 70.5 473.2C68.7 477.867 66.1667 481.933 62.9 485.4C59.6333 488.8 55.8 491.467 51.4 493.4C47 495.267 42.2 496.2 37 496.2C31.8 496.2 27 495.267 22.6 493.4C18.2 491.467 14.3667 488.767 11.1 485.3C7.83333 481.833 5.29999 477.767 3.49999 473.1C1.7 468.433 0.799999 463.367 0.799999 457.9C0.799999 452.367 1.7 447.3 3.49999 442.7C5.29999 438.033 7.83333 434 11.1 430.6C14.3667 427.133 18.2 424.433 22.6 422.5C26.9333 420.567 31.7333 419.6 37 419.6C42.2 419.6 47.0333 420.567 51.5 422.5C55.9 424.433 59.7333 427.133 63 430.6C66.2 434 68.7 438.033 70.5 442.7C72.3 447.3 73.2 452.333 73.2 457.8ZM59.4 457.9C59.4 454.767 58.8667 451.9 57.8 449.3C56.7333 446.633 55.2 444.3 53.2 442.3C51.2 440.3 48.8333 438.767 46.1 437.7C43.3667 436.567 40.3333 436 37 436C33.6667 436 30.6333 436.567 27.9 437.7C25.1667 438.767 22.8 440.3 20.8 442.3C18.8 444.233 17.2667 446.533 16.2 449.2C15.1333 451.867 14.6 454.767 14.6 457.9C14.6 461.033 15.1333 463.933 16.2 466.6C17.2667 469.2 18.8 471.5 20.8 473.5C22.8 475.5 25.1667 477.067 27.9 478.2C30.6333 479.267 33.6667 479.8 37 479.8C40.2667 479.8 43.3 479.267 46.1 478.2C48.8333 477.067 51.2 475.533 53.2 473.6C55.2 471.6 56.7333 469.267 57.8 466.6C58.8667 463.933 59.4 461.033 59.4 457.9ZM58.8 365.32L62.5 368.92H2L2 352.82H62.5L58.8 356.62V327.02L62.5 330.82H2V314.72H72L72 407.12H2V391.02H62.5L58.8 394.72L58.8 365.32ZM72 297.355H2L2 281.255H47.6L2 247.855L2 232.655H72V248.655H26.5L72 282.055V297.355ZM72 215.226H2L2 158.726H14.9V199.126H29.3V179.726C29.3 171.259 31.0667 164.826 34.6 160.426C38.1333 155.959 43.2667 153.726 50 153.726C56.9333 153.726 62.3333 156.192 66.2 161.126C70.0667 166.059 72 173.026 72 182.026V215.226ZM60 199.126V182.926C60 178.792 59.2 175.626 57.6 173.426C55.9333 171.226 53.5333 170.126 50.4 170.126C44.2667 170.126 41.2 174.392 41.2 182.926V199.126H60ZM72 96.0977L38.3 117.898L30.4 104.798L72 77.6977V96.0977ZM72 141.598H2V125.498H72V141.598ZM43.8 130.198H30.3V105.798H43.8V130.198ZM38.8 103.298L37 118.198L2 95.4977V78.3977L38.8 103.298ZM72 79.4734L2 48.2734V32.2734L72 0.973433V17.9734L10.2 43.5734V37.1734L72 62.8734V79.4734ZM57 63.8734L44.7 59.5734V23.5734L57 19.1734V63.8734Z" fill="#F1C1A2" fill-opacity="0.31"/>
</svg>
