<svg width="458" height="210" viewBox="0 0 458 210" fill="none" xmlns="http://www.w3.org/2000/svg">
<path d="M7.6 159.6V145.6L79.2 54H100.8L29.8 145.6L19.6 142.4H131.4V159.6H7.6ZM85.4 194V159.6L86 142.4V112H104.8V194H85.4Z" fill="#E0E1E4" fill-opacity="0.7"/>
<path d="M333.6 159.6V145.6L405.2 54H426.8L355.8 145.6L345.6 142.4H457.4V159.6H333.6ZM411.4 194V159.6L412 142.4V112H430.8V194H411.4Z" fill="#E0E1E4" fill-opacity="0.7"/>
<path d="M317 120.5C317 169.929 276.929 210 227.5 210C178.071 210 138 169.929 138 120.5C138 71.0705 178.071 31 227.5 31C276.929 31 317 71.0705 317 120.5ZM187.588 120.5C187.588 142.543 205.457 160.412 227.5 160.412C249.543 160.412 267.412 142.543 267.412 120.5C267.412 98.4573 249.543 80.5881 227.5 80.5881C205.457 80.5881 187.588 98.4573 187.588 120.5Z" fill="#EEF0FA" fill-opacity="0.3"/>
<path d="M227.936 45.8437C210.007 45.8437 192.669 52.259 179.058 63.9296C165.446 75.6002 156.46 91.7559 153.724 109.475C150.987 127.195 154.681 145.309 164.137 160.542C173.594 175.775 188.189 187.122 205.283 192.531L210.71 175.379C197.711 171.266 186.613 162.638 179.422 151.054C172.23 139.47 169.421 125.696 171.502 112.221C173.583 98.7465 180.417 86.4612 190.767 77.5865C201.118 68.7117 214.302 63.8333 227.936 63.8333V45.8437Z" fill="#FFCC91" fill-opacity="0.3"/>
<path d="M171.195 71.7503C178.309 63.5429 187.119 56.9767 197.018 52.5044C206.916 48.0322 217.666 45.7605 228.528 45.846L228.386 63.8351C220.127 63.7701 211.952 65.4975 204.425 68.8984C196.898 72.2992 190.198 77.2924 184.788 83.5336L171.195 71.7503Z" fill="#97A5EB"/>
<path d="M227.936 45.8437C238.828 45.8437 249.589 48.213 259.474 52.7873C269.359 57.3616 278.13 64.0314 285.179 72.3341C292.229 80.6368 297.388 90.3736 300.298 100.869C303.209 111.365 303.801 122.368 302.035 133.115C300.268 143.863 296.185 154.097 290.068 163.109C283.951 172.121 275.947 179.694 266.611 185.304C257.275 190.913 246.831 194.425 236.002 195.595C225.173 196.765 214.22 195.565 203.901 192.079L209.659 175.035C217.506 177.686 225.835 178.599 234.07 177.709C242.304 176.82 250.247 174.149 257.346 169.884C264.446 165.618 270.532 159.859 275.184 153.006C279.835 146.153 282.94 138.37 284.283 130.198C285.627 122.025 285.176 113.658 282.963 105.677C280.749 97.6954 276.826 90.2912 271.466 83.9775C266.105 77.6639 259.435 72.592 251.919 69.1135C244.402 65.635 236.219 63.8333 227.936 63.8333V45.8437Z" fill="#5570F1"/>
</svg>
