<svg width="472" height="34" viewBox="0 0 472 34" fill="none" xmlns="http://www.w3.org/2000/svg">
<path d="M12.376 29.384C10.648 29.384 9.03733 29.1067 7.544 28.552C6.072 27.976 4.792 27.1653 3.704 26.12C2.616 25.0747 1.76267 23.848 1.144 22.44C0.546667 21.032 0.248 19.4853 0.248 17.8C0.248 16.1147 0.546667 14.568 1.144 13.16C1.76267 11.752 2.616 10.5253 3.704 9.48C4.81333 8.43467 6.104 7.63467 7.576 7.08C9.048 6.504 10.6587 6.216 12.408 6.216C14.3493 6.216 16.0987 6.55733 17.656 7.24C19.2347 7.90133 20.5573 8.88267 21.624 10.184L18.296 13.256C17.528 12.3813 16.6747 11.7307 15.736 11.304C14.7973 10.856 13.7733 10.632 12.664 10.632C11.6187 10.632 10.6587 10.8027 9.784 11.144C8.90933 11.4853 8.152 11.976 7.512 12.616C6.872 13.256 6.37067 14.0133 6.008 14.888C5.66667 15.7627 5.496 16.7333 5.496 17.8C5.496 18.8667 5.66667 19.8373 6.008 20.712C6.37067 21.5867 6.872 22.344 7.512 22.984C8.152 23.624 8.90933 24.1147 9.784 24.456C10.6587 24.7973 11.6187 24.968 12.664 24.968C13.7733 24.968 14.7973 24.7547 15.736 24.328C16.6747 23.88 17.528 23.208 18.296 22.312L21.624 25.384C20.5573 26.6853 19.2347 27.6773 17.656 28.36C16.0987 29.0427 14.3387 29.384 12.376 29.384ZM29.616 29V9.64L30.8 10.824H22.48V6.6H41.904V10.824H33.584L34.736 9.64V29H29.616ZM45.159 29V6.6H54.855C56.8603 6.6 58.5883 6.93067 60.039 7.592C61.4897 8.232 62.6097 9.16 63.399 10.376C64.1883 11.592 64.583 13.0427 64.583 14.728C64.583 16.392 64.1883 17.832 63.399 19.048C62.6097 20.264 61.4897 21.2027 60.039 21.864C58.5883 22.504 56.8603 22.824 54.855 22.824H48.039L50.343 20.488V29H45.159ZM50.343 21.064L48.039 18.6H54.567C56.167 18.6 57.3617 18.2587 58.151 17.576C58.9403 16.8933 59.335 15.944 59.335 14.728C59.335 13.4907 58.9403 12.5307 58.151 11.848C57.3617 11.1653 56.167 10.824 54.567 10.824H48.039L50.343 8.36V21.064ZM64.3498 29L74.3338 6.6H79.4538L89.4698 29H84.0298L75.8378 9.224H77.8858L69.6618 29H64.3498ZM69.3418 24.2L70.7178 20.264H82.2378L83.6458 24.2H69.3418ZM107.8 6.6H112.984V29H107.8V6.6ZM97.6243 29H92.4403V6.6H97.6243V29ZM108.184 19.816H97.2403V15.432H108.184V19.816ZM118.597 29V6.6H123.749V21.192L134.437 6.6H139.301V29H134.181V14.44L123.493 29H118.597ZM144.878 29V6.6H150.03V24.776H160.014V6.6H165.166V29H144.878ZM163.598 33.736V27.784L164.718 29H160.014V24.776H168.366V33.736H163.598ZM169.381 29L179.365 6.6H184.485L194.501 29H189.061L180.869 9.224H182.917L174.693 29H169.381ZM174.373 24.2L175.749 20.264H187.269L188.677 24.2H174.373ZM221.894 6.6H227.078V29H221.894V6.6ZM211.718 29H206.534V6.6H211.718V29ZM222.278 19.816H211.334V15.432H222.278V19.816ZM237.458 15.624H248.242V19.656H237.458V15.624ZM237.842 24.84H250.034V29H232.69V6.6H249.618V10.76H237.842V24.84ZM278.644 6.6H283.828V29H278.644V6.6ZM268.468 29H263.284V6.6H268.468V29ZM279.028 19.816H268.084V15.432H279.028V19.816ZM286.912 29L296.896 6.6H302.016L312.032 29H306.592L298.4 9.224H300.448L292.224 29H286.912ZM291.904 24.2L293.28 20.264H304.8L306.208 24.2H291.904ZM315.003 29V6.6H320.155V21.192L330.843 6.6H335.707V29H330.587V14.44L319.899 29H315.003ZM325.339 5.16C323.205 5.16 321.637 4.73333 320.635 3.88C319.653 3.02667 319.152 1.82133 319.131 0.263998H322.683C322.704 1.032 322.928 1.61867 323.355 2.024C323.803 2.408 324.464 2.6 325.339 2.6C326.192 2.6 326.843 2.408 327.291 2.024C327.739 1.61867 327.973 1.032 327.995 0.263998H331.547C331.525 1.82133 331.013 3.02667 330.011 3.88C329.008 4.73333 327.451 5.16 325.339 5.16ZM355.976 26.696V10.824H348.296L348.2 14.088C348.136 15.4747 348.04 16.7867 347.912 18.024C347.805 19.2613 347.634 20.392 347.4 21.416C347.165 22.4187 346.856 23.272 346.472 23.976C346.109 24.68 345.65 25.1813 345.096 25.48L339.56 24.776C340.328 24.7973 340.957 24.5307 341.448 23.976C341.96 23.4213 342.365 22.6427 342.664 21.64C342.962 20.616 343.176 19.4213 343.304 18.056C343.453 16.6907 343.56 15.208 343.624 13.608L343.88 6.6H361.096V26.696H355.976ZM338.824 33.64L338.856 24.776H364.232V33.64H359.432V29H343.624V33.64H338.824ZM372.49 15.624H383.274V19.656H372.49V15.624ZM372.874 24.84H385.066V29H367.722V6.6H384.65V10.76H372.874V24.84ZM404.613 6.6H409.797V29H404.613V6.6ZM394.437 29H389.253V6.6H394.437V29ZM404.997 19.816H394.053V15.432H404.997V19.816ZM412.881 29L422.865 6.6H427.985L438.001 29H432.561L424.369 9.224H426.417L418.193 29H412.881ZM417.873 24.2L419.249 20.264H430.769L432.177 24.2H417.873ZM451.442 29.256C450.589 29.256 449.853 28.968 449.234 28.392C448.637 27.7947 448.338 27.0373 448.338 26.12C448.338 25.2027 448.637 24.4667 449.234 23.912C449.853 23.336 450.589 23.048 451.442 23.048C452.317 23.048 453.053 23.336 453.65 23.912C454.247 24.4667 454.546 25.2027 454.546 26.12C454.546 27.0373 454.247 27.7947 453.65 28.392C453.053 28.968 452.317 29.256 451.442 29.256ZM459.817 29.256C458.964 29.256 458.228 28.968 457.609 28.392C457.012 27.7947 456.713 27.0373 456.713 26.12C456.713 25.2027 457.012 24.4667 457.609 23.912C458.228 23.336 458.964 23.048 459.817 23.048C460.692 23.048 461.428 23.336 462.025 23.912C462.622 24.4667 462.921 25.2027 462.921 26.12C462.921 27.0373 462.622 27.7947 462.025 28.392C461.428 28.968 460.692 29.256 459.817 29.256ZM468.192 29.256C467.339 29.256 466.603 28.968 465.984 28.392C465.387 27.7947 465.088 27.0373 465.088 26.12C465.088 25.2027 465.387 24.4667 465.984 23.912C466.603 23.336 467.339 23.048 468.192 23.048C469.067 23.048 469.803 23.336 470.4 23.912C470.997 24.4667 471.296 25.2027 471.296 26.12C471.296 27.0373 470.997 27.7947 470.4 28.392C469.803 28.968 469.067 29.256 468.192 29.256Z" fill="#F1C1A2"/>
</svg>
