<svg width="18" height="18" viewBox="0 0 18 18" fill="none" xmlns="http://www.w3.org/2000/svg">
<path d="M5 10C4.44772 10 4 9.55228 4 9C4 8.44771 4.44772 8 5 8C5.55228 8 6 8.44771 6 9C6 9.55228 5.55228 10 5 10Z" fill="black"/>
<path d="M5 14C4.44772 14 4 13.5523 4 13C4 12.4477 4.44772 12 5 12C5.55228 12 6 12.4477 6 13C6 13.5523 5.55228 14 5 14Z" fill="black"/>
<path d="M8 13C8 13.5523 8.44771 14 9 14C9.55228 14 10 13.5523 10 13C10 12.4477 9.55228 12 9 12C8.44771 12 8 12.4477 8 13Z" fill="black"/>
<path d="M13 14C12.4477 14 12 13.5523 12 13C12 12.4477 12.4477 12 13 12C13.5523 12 14 12.4477 14 13C14 13.5523 13.5523 14 13 14Z" fill="black"/>
<path d="M8 9C8 9.55228 8.44771 10 9 10C9.55228 10 10 9.55228 10 9C10 8.44771 9.55228 8 9 8C8.44771 8 8 8.44771 8 9Z" fill="black"/>
<path d="M13 10C12.4477 10 12 9.55228 12 9C12 8.44771 12.4477 8 13 8C13.5523 8 14 8.44771 14 9C14 9.55228 13.5523 10 13 10Z" fill="black"/>
<path d="M5 4C4.44772 4 4 4.44772 4 5C4 5.55228 4.44772 6 5 6H13C13.5523 6 14 5.55228 14 5C14 4.44772 13.5523 4 13 4H5Z" fill="black"/>
<path fill-rule="evenodd" clip-rule="evenodd" d="M3 0C1.34315 0 0 1.34315 0 3V15C0 16.6569 1.34315 18 3 18H15C16.6569 18 18 16.6569 18 15V3C18 1.34315 16.6569 0 15 0H3ZM15 2H3C2.44772 2 2 2.44772 2 3V15C2 15.5523 2.44772 16 3 16H15C15.5523 16 16 15.5523 16 15V3C16 2.44772 15.5523 2 15 2Z" fill="black"/>
</svg>
