<svg width="21" height="20" viewBox="0 0 21 20" fill="none" xmlns="http://www.w3.org/2000/svg">
<path d="M8.59172 8.86C8.64172 8.53 8.75172 8.24 8.89172 7.99C9.03172 7.74 9.23172 7.53 9.48172 7.37C9.72172 7.22 10.0217 7.15 10.3917 7.14C10.6217 7.15 10.8317 7.19 11.0217 7.27C11.2217 7.36 11.4017 7.48 11.5417 7.63C11.6817 7.78 11.7917 7.96 11.8817 8.16C11.9717 8.36 12.0117 8.58 12.0217 8.8H13.8117C13.7917 8.33 13.7017 7.9 13.5317 7.51C13.3617 7.12 13.1317 6.78 12.8317 6.5C12.5317 6.22 12.1717 6 11.7517 5.84C11.3317 5.68 10.8717 5.61 10.3617 5.61C9.71172 5.61 9.14172 5.72 8.66172 5.95C8.18172 6.18 7.78172 6.48 7.46172 6.87C7.14172 7.26 6.90172 7.71 6.75172 8.23C6.60172 8.75 6.51172 9.29 6.51172 9.87V10.14C6.51172 10.72 6.59172 11.26 6.74172 11.78C6.89172 12.3 7.13172 12.75 7.45172 13.13C7.77172 13.51 8.17172 13.82 8.65172 14.04C9.13172 14.26 9.70172 14.38 10.3517 14.38C10.8217 14.38 11.2617 14.3 11.6717 14.15C12.0817 14 12.4417 13.79 12.7517 13.52C13.0617 13.25 13.3117 12.94 13.4917 12.58C13.6717 12.22 13.7817 11.84 13.7917 11.43H12.0017C11.9917 11.64 11.9417 11.83 11.8517 12.01C11.7617 12.19 11.6417 12.34 11.4917 12.47C11.3417 12.6 11.1717 12.7 10.9717 12.77C10.7817 12.84 10.5817 12.86 10.3717 12.87C10.0117 12.86 9.71172 12.79 9.48172 12.64C9.23172 12.48 9.03172 12.27 8.89172 12.02C8.75172 11.77 8.64172 11.47 8.59172 11.14C8.54172 10.81 8.51172 10.47 8.51172 10.14V9.87C8.51172 9.52 8.54172 9.19 8.59172 8.86ZM10.5117 0C4.99172 0 0.511719 4.48 0.511719 10C0.511719 15.52 4.99172 20 10.5117 20C16.0317 20 20.5117 15.52 20.5117 10C20.5117 4.48 16.0317 0 10.5117 0ZM10.5117 18C6.10172 18 2.51172 14.41 2.51172 10C2.51172 5.59 6.10172 2 10.5117 2C14.9217 2 18.5117 5.59 18.5117 10C18.5117 14.41 14.9217 18 10.5117 18Z" fill="white"/>
</svg>
