<svg xmlns="http://www.w3.org/2000/svg" width="20" height="20" fill="none"><rect id="backgroundrect" width="100%" height="100%" x="0" y="0" fill="none" stroke="none" class="" style=""/>

<g class="currentLayer" style=""><title>Layer 1</title><path d="M 9.29289 13.702117194950581 z M 19 9.99502 C 18.7348 9.99502 18.4804 10.10042 18.2929 10.28792 C 18.1054 10.47542 18 10.72982 18 10.99502 L 18 16.99502 C 18 17.26022 17.8946 17.51462 17.7071 17.70212 C 17.5196 17.88962 17.2652 17.99502 17 17.99502 L 3 17.99502 C 2.73478 17.99502 2.48043 17.88962 2.29289 17.70212 C 2.10536 17.51462 2 17.26022 2 16.99502 L 2 10.99502 C 2 10.72982 1.8946400000000003 10.47542 1.7071100000000001 10.28792 C 1.5195699999999999 10.10042 1.26522 9.99502 1 9.99502 C 0.7347800000000001 9.99502 0.48043 10.10042 0.29289000000000004 10.28792 C 0.10536000000000001 10.47542 0 10.72982 0 10.99502 L 0 16.99502 C 0 17.79062 0.3160700000000001 18.55372 0.8786800000000001 19.11632 C 1.44129 19.67892 2.20435 19.99502 3 19.99502 L 17 19.99502 C 17.7956 19.99502 18.5587 19.67892 19.1213 19.11632 C 19.6839 18.55372 20 17.79062 20 16.99502 L 20 10.99502 C 20 10.72982 19.8946 10.47542 19.7071 10.28792 C 19.5196 10.10042 19.2652 9.99502 19 9.99502 z" fill="white" id="svg_1" class=""/><path d="M6.9549023402619365,6.113181701049804 L9.244902340261936,3.8131817010498033 L9.244902340261936,13.403181701049803 C9.244902340261936,13.668381701049803 9.350262340261937,13.922781701049804 9.537792340261936,14.110281701049804 C9.725332340261936,14.297781701049804 9.979682340261936,14.403181701049803 10.244902340261936,14.403181701049803 C10.510102340261936,14.403181701049803 10.764502340261936,14.297781701049804 10.952002340261936,14.110281701049804 C11.139502340261936,13.922781701049804 11.244902340261936,13.668381701049803 11.244902340261936,13.403181701049803 L11.244902340261936,3.8131817010498033 L13.534902340261937,6.113181701049804 C13.627902340261937,6.206911701049805 13.738502340261935,6.281301701049806 13.860302340261935,6.332071701049806 C13.982202340261935,6.382841701049806 14.112902340261936,6.408971701049804 14.244902340261937,6.408971701049804 C14.376902340261935,6.408971701049804 14.507602340261936,6.382841701049806 14.629502340261936,6.332071701049806 C14.751302340261937,6.281301701049806 14.861902340261935,6.206911701049805 14.954902340261935,6.113181701049804 C15.048602340261937,6.020211701049803 15.123002340261937,5.909611701049805 15.173802340261936,5.787751701049803 C15.224602340261935,5.665891701049805 15.250702340261935,5.535191701049804 15.250702340261935,5.403181701049803 C15.250702340261935,5.271161701049806 15.224602340261935,5.140461701049805 15.173802340261936,5.018601701049803 C15.123002340261937,4.896741701049805 15.048602340261937,4.786141701049804 14.954902340261935,4.693181701049806 L10.954902340261937,0.6931717010498062 C10.859802340261936,0.6021317010498031 10.747702340261936,0.5307717010498045 10.624902340261936,0.48317170104980534 C10.381402340261936,0.3831617010498043 10.108362340261936,0.3831617010498043 9.864902340261937,0.48317170104980534 C9.742152340261937,0.5307717010498045 9.630002340261937,0.6021317010498031 9.534902340261937,0.6931717010498062 L5.534902340261937,4.693181701049806 C5.441662340261937,4.786411701049804 5.3677023402619355,4.8971117010498055 5.317242340261936,5.018931701049805 C5.266782340261937,5.140751701049805 5.240812340261936,5.2713217010498035 5.240812340261936,5.403181701049803 C5.240812340261936,5.535041701049806 5.266782340261937,5.665601701049805 5.317242340261936,5.787431701049805 C5.3677023402619355,5.909251701049804 5.441662340261937,6.019941701049806 5.534902340261937,6.113181701049804 C5.628142340261936,6.206411701049806 5.738832340261936,6.280381701049805 5.860652340261936,6.330841701049806 C5.9824723402619355,6.381301701049804 6.113042340261936,6.407271701049805 6.244902340261936,6.407271701049805 C6.376762340261935,6.407271701049805 6.507332340261936,6.381301701049804 6.6291523402619354,6.330841701049806 C6.750972340261937,6.280381701049805 6.861662340261937,6.206411701049806 6.9549023402619365,6.113181701049804 z" fill="white" class="" id="svg_3" transform="rotate(179.59002685546875 10.245758056640625,7.405672073364257) "/></g></svg>