<svg width="24" height="26" viewBox="0 0 34 26" fill="none" xmlns="http://www.w3.org/2000/svg">
<path d="M0 1.85714C0 0.831471 0.845684 0 1.88889 0H32.1111C33.1543 0 34 0.831471 34 1.85714C34 2.88281 33.1543 3.71429 32.1111 3.71429H1.88889C0.845685 3.71429 0 2.88281 0 1.85714Z" fill="black"/>
<path d="M0 24.1429C0 23.1172 0.845684 22.2857 1.88889 22.2857H32.1111C33.1543 22.2857 34 23.1172 34 24.1429C34 25.1685 33.1543 26 32.1111 26H1.88889C0.845685 26 0 25.1685 0 24.1429Z" fill="black"/>
<path d="M0 13C0 11.9743 0.845684 11.1429 1.88889 11.1429H32.1111C33.1543 11.1429 34 11.9743 34 13C34 14.0257 33.1543 14.8571 32.1111 14.8571H13.7181L8.71639 19.7748L3.71472 14.8571H1.88889C0.845685 14.8571 0 14.0257 0 13Z" fill="black"/>
</svg>
