<svg width="14" height="15" viewBox="0 0 14 15" fill="none" xmlns="http://www.w3.org/2000/svg">
<path d="M4.80732 4.64026L6.33398 3.10692V9.50026C6.33398 9.67707 6.40422 9.84664 6.52925 9.97166C6.65427 10.0967 6.82384 10.1669 7.00065 10.1669C7.17746 10.1669 7.34703 10.0967 7.47205 9.97166C7.59708 9.84664 7.66732 9.67707 7.66732 9.50026V3.10692L9.19398 4.64026C9.25596 4.70274 9.32969 4.75234 9.41093 4.78618C9.49217 4.82003 9.57931 4.83746 9.66732 4.83746C9.75533 4.83746 9.84246 4.82003 9.9237 4.78618C10.0049 4.75234 10.0787 4.70274 10.1406 4.64026C10.2031 4.57828 10.2527 4.50455 10.2866 4.42331C10.3204 4.34207 10.3378 4.25493 10.3378 4.16692C10.3378 4.07892 10.3204 3.99178 10.2866 3.91054C10.2527 3.8293 10.2031 3.75557 10.1406 3.69359L7.47398 1.02692C7.41058 0.966229 7.33582 0.918653 7.25398 0.886923C7.09168 0.820244 6.90962 0.820244 6.74732 0.886923C6.66548 0.918653 6.59072 0.966229 6.52732 1.02692L3.86065 3.69359C3.79849 3.75575 3.74918 3.82954 3.71554 3.91076C3.6819 3.99197 3.66459 4.07902 3.66459 4.16692C3.66459 4.25483 3.6819 4.34187 3.71554 4.42309C3.74918 4.5043 3.79849 4.5781 3.86065 4.64026C3.92281 4.70242 3.9966 4.75172 4.07782 4.78536C4.15903 4.819 4.24608 4.83632 4.33398 4.83632C4.42189 4.83632 4.50894 4.819 4.59015 4.78536C4.67137 4.75172 4.74516 4.70242 4.80732 4.64026ZM13.0007 7.50026C12.8238 7.50026 12.6543 7.57049 12.5292 7.69552C12.4042 7.82054 12.334 7.99011 12.334 8.16692V12.1669C12.334 12.3437 12.2637 12.5133 12.1387 12.6383C12.0137 12.7634 11.8441 12.8336 11.6673 12.8336H2.33398C2.15717 12.8336 1.9876 12.7634 1.86258 12.6383C1.73756 12.5133 1.66732 12.3437 1.66732 12.1669V8.16692C1.66732 7.99011 1.59708 7.82054 1.47206 7.69552C1.34703 7.57049 1.17746 7.50026 1.00065 7.50026C0.82384 7.50026 0.654271 7.57049 0.529246 7.69552C0.404222 7.82054 0.333984 7.99011 0.333984 8.16692V12.1669C0.333984 12.6974 0.544698 13.2061 0.919771 13.5811C1.29484 13.9562 1.80355 14.1669 2.33398 14.1669H11.6673C12.1978 14.1669 12.7065 13.9562 13.0815 13.5811C13.4566 13.2061 13.6673 12.6974 13.6673 12.1669V8.16692C13.6673 7.99011 13.5971 7.82054 13.4721 7.69552C13.347 7.57049 13.1775 7.50026 13.0007 7.50026Z" fill="#333333"/>
</svg>
