<svg width="21" height="20" viewBox="0 0 21 20" fill="none" xmlns="http://www.w3.org/2000/svg">
<path fill-rule="evenodd" clip-rule="evenodd" d="M10.5 4C10.5 6.20914 8.70914 8 6.5 8C4.29086 8 2.5 6.20914 2.5 4C2.5 1.79086 4.29086 0 6.5 0C8.70914 0 10.5 1.79086 10.5 4ZM8.5 4C8.5 5.10457 7.60457 6 6.5 6C5.39543 6 4.5 5.10457 4.5 4C4.5 2.89543 5.39543 2 6.5 2C7.60457 2 8.5 2.89543 8.5 4Z" fill="black"/>
<path d="M10.5 12C10.5 11.4477 10.0523 11 9.5 11H3.5C2.94772 11 2.5 11.4477 2.5 12V18H0.5V12C0.5 10.3431 1.84315 9 3.5 9H9.5C11.1569 9 12.5 10.3431 12.5 12V18H10.5V12Z" fill="black"/>
<path fill-rule="evenodd" clip-rule="evenodd" d="M18.5 6C18.5 8.20914 16.7091 10 14.5 10C12.2909 10 10.5 8.20914 10.5 6C10.5 3.79086 12.2909 2 14.5 2C16.7091 2 18.5 3.79086 18.5 6ZM16.5 6C16.5 7.10457 15.6046 8 14.5 8C13.3954 8 12.5 7.10457 12.5 6C12.5 4.89543 13.3954 4 14.5 4C15.6046 4 16.5 4.89543 16.5 6Z" fill="black"/>
<path d="M18.5 14C18.5 13.4477 18.0523 13 17.5 13H11.5C10.9477 13 10.5 13.4477 10.5 14V20H8.5V14C8.5 12.3431 9.84315 11 11.5 11H17.5C19.1569 11 20.5 12.3431 20.5 14V20H18.5V14Z" fill="black"/>
</svg>
