<svg width="117" height="33" viewBox="0 0 117 33" fill="none" xmlns="http://www.w3.org/2000/svg">
<path d="M27.568 15.464V21.896C27.568 22.344 27.672 22.672 27.88 22.88C28.104 23.072 28.472 23.168 28.984 23.168H30.544V26H28.432C25.6 26 24.184 24.624 24.184 21.872V15.464H22.6V12.704H24.184V9.416H27.568V12.704H30.544V15.464H27.568ZM36.9927 15.464V21.896C36.9927 22.344 37.0967 22.672 37.3047 22.88C37.5287 23.072 37.8967 23.168 38.4087 23.168H39.9687V26H37.8567C35.0247 26 33.6087 24.624 33.6087 21.872V15.464H32.0247V12.704H33.6087V9.416H36.9927V12.704H39.9687V15.464H36.9927ZM41.6414 19.304C41.6414 17.96 41.9054 16.768 42.4334 15.728C42.9774 14.688 43.7054 13.888 44.6174 13.328C45.5454 12.768 46.5774 12.488 47.7134 12.488C48.7054 12.488 49.5694 12.688 50.3054 13.088C51.0574 13.488 51.6574 13.992 52.1054 14.6V12.704H55.4894V26H52.1054V24.056C51.6734 24.68 51.0734 25.2 50.3054 25.616C49.5534 26.016 48.6814 26.216 47.6894 26.216C46.5694 26.216 45.5454 25.928 44.6174 25.352C43.7054 24.776 42.9774 23.968 42.4334 22.928C41.9054 21.872 41.6414 20.664 41.6414 19.304ZM52.1054 19.352C52.1054 18.536 51.9454 17.84 51.6254 17.264C51.3054 16.672 50.8734 16.224 50.3294 15.92C49.7854 15.6 49.2014 15.44 48.5774 15.44C47.9534 15.44 47.3774 15.592 46.8494 15.896C46.3214 16.2 45.8894 16.648 45.5534 17.24C45.2334 17.816 45.0734 18.504 45.0734 19.304C45.0734 20.104 45.2334 20.808 45.5534 21.416C45.8894 22.008 46.3214 22.464 46.8494 22.784C47.3934 23.104 47.9694 23.264 48.5774 23.264C49.2014 23.264 49.7854 23.112 50.3294 22.808C50.8734 22.488 51.3054 22.04 51.6254 21.464C51.9454 20.872 52.1054 20.168 52.1054 19.352ZM62.251 14.648C62.683 14.008 63.275 13.488 64.027 13.088C64.795 12.688 65.667 12.488 66.643 12.488C67.779 12.488 68.803 12.768 69.715 13.328C70.643 13.888 71.371 14.688 71.899 15.728C72.443 16.752 72.715 17.944 72.715 19.304C72.715 20.664 72.443 21.872 71.899 22.928C71.371 23.968 70.643 24.776 69.715 25.352C68.803 25.928 67.779 26.216 66.643 26.216C65.651 26.216 64.779 26.024 64.027 25.64C63.291 25.24 62.699 24.728 62.251 24.104V26H58.891V8.24H62.251V14.648ZM69.283 19.304C69.283 18.504 69.115 17.816 68.779 17.24C68.459 16.648 68.027 16.2 67.483 15.896C66.955 15.592 66.379 15.44 65.755 15.44C65.147 15.44 64.571 15.6 64.027 15.92C63.499 16.224 63.067 16.672 62.731 17.264C62.411 17.856 62.251 18.552 62.251 19.352C62.251 20.152 62.411 20.848 62.731 21.44C63.067 22.032 63.499 22.488 64.027 22.808C64.571 23.112 65.147 23.264 65.755 23.264C66.379 23.264 66.955 23.104 67.483 22.784C68.027 22.464 68.459 22.008 68.779 21.416C69.115 20.824 69.283 20.12 69.283 19.304ZM87.9966 12.704L79.7646 32.288H76.1886L79.0686 25.664L73.7406 12.704H77.5086L80.9406 21.992L84.4206 12.704H87.9966ZM93.8399 15.464V21.896C93.8399 22.344 93.9439 22.672 94.1519 22.88C94.3759 23.072 94.7439 23.168 95.2559 23.168H96.8159V26H94.7039C91.8719 26 90.4559 24.624 90.4559 21.872V15.464H88.8719V12.704H90.4559V9.416H93.8399V12.704H96.8159V15.464H93.8399ZM111.713 19.064C111.713 19.544 111.681 19.976 111.617 20.36H101.897C101.977 21.32 102.313 22.072 102.905 22.616C103.497 23.16 104.225 23.432 105.089 23.432C106.337 23.432 107.225 22.896 107.753 21.824H111.377C110.993 23.104 110.257 24.16 109.169 24.992C108.081 25.808 106.745 26.216 105.161 26.216C103.881 26.216 102.729 25.936 101.705 25.376C100.697 24.8 99.9046 23.992 99.3286 22.952C98.7686 21.912 98.4886 20.712 98.4886 19.352C98.4886 17.976 98.7686 16.768 99.3286 15.728C99.8886 14.688 100.673 13.888 101.681 13.328C102.689 12.768 103.849 12.488 105.161 12.488C106.425 12.488 107.553 12.76 108.545 13.304C109.553 13.848 110.329 14.624 110.873 15.632C111.433 16.624 111.713 17.768 111.713 19.064ZM108.233 18.104C108.217 17.24 107.905 16.552 107.297 16.04C106.689 15.512 105.945 15.248 105.065 15.248C104.233 15.248 103.529 15.504 102.953 16.016C102.393 16.512 102.049 17.208 101.921 18.104H108.233Z" fill="#5570F1"/>
<path d="M22 17C22 20.3137 19.3137 23 16 23C12.6863 23 10 20.3137 10 17C10 13.6863 12.6863 11 16 11C19.3137 11 22 13.6863 22 17ZM13.3243 17C13.3243 18.4777 14.5223 19.6757 16 19.6757C17.4777 19.6757 18.6757 18.4777 18.6757 17C18.6757 15.5223 17.4777 14.3243 16 14.3243C14.5223 14.3243 13.3243 15.5223 13.3243 17Z" fill="#EEF0FA"/>
<path d="M16.0293 11.9951C14.8273 11.9951 13.665 12.4252 12.7525 13.2076C11.84 13.99 11.2375 15.073 11.0541 16.2609C10.8706 17.4488 11.1183 18.6632 11.7522 19.6844C12.3862 20.7056 13.3646 21.4663 14.5106 21.8289L14.8744 20.6791C14.003 20.4033 13.2589 19.8249 12.7769 19.0483C12.2948 18.2717 12.1065 17.3483 12.246 16.445C12.3855 15.5417 12.8436 14.7181 13.5375 14.1231C14.2314 13.5282 15.1152 13.2011 16.0293 13.2011V11.9951Z" fill="#E8762D"/>
<path d="M12.2253 13.7319C12.7023 13.1817 13.2929 12.7415 13.9565 12.4416C14.6201 12.1418 15.3408 11.9895 16.0689 11.9953L16.0594 13.2012C15.5057 13.1969 14.9577 13.3127 14.4531 13.5407C13.9485 13.7687 13.4993 14.1034 13.1366 14.5218L12.2253 13.7319Z" fill="#97A5EB"/>
<path d="M16.0293 11.9951C16.7594 11.9951 17.4809 12.154 18.1435 12.4606C18.8062 12.7673 19.3942 13.2144 19.8668 13.771C20.3394 14.3276 20.6852 14.9804 20.8803 15.684C21.0755 16.3876 21.1152 17.1252 20.9968 17.8457C20.8783 18.5662 20.6046 19.2523 20.1945 19.8565C19.7845 20.4606 19.2479 20.9683 18.622 21.3444C17.9961 21.7205 17.2959 21.9559 16.57 22.0343C15.844 22.1127 15.1097 22.0323 14.418 21.7986L14.804 20.656C15.33 20.8337 15.8884 20.8949 16.4404 20.8353C16.9925 20.7756 17.5249 20.5966 18.0009 20.3106C18.4768 20.0247 18.8848 19.6386 19.1967 19.1792C19.5085 18.7198 19.7167 18.198 19.8067 17.6501C19.8968 17.1022 19.8666 16.5413 19.7182 16.0063C19.5698 15.4712 19.3068 14.9748 18.9474 14.5516C18.5881 14.1283 18.1409 13.7883 17.637 13.5551C17.1331 13.3219 16.5845 13.2011 16.0293 13.2011V11.9951Z" fill="#5570F1"/>
<path d="M8.36 23.56H17.56V28H2.76V0.0799994H8.36V23.56Z" fill="#5570F1"/>
</svg>
