<svg width="21" height="16" viewBox="0 0 21 16" fill="none" xmlns="http://www.w3.org/2000/svg">
<path d="M4.05556 11.5556C4.05556 11.0646 4.45353 10.6667 4.94444 10.6667H12.0556C12.5465 10.6667 12.9444 11.0646 12.9444 11.5556C12.9444 12.0465 12.5465 12.4444 12.0556 12.4444H4.94444C4.45353 12.4444 4.05556 12.0465 4.05556 11.5556Z" fill="black"/>
<path d="M15.6111 7.11111C16.102 7.11111 16.5 7.50908 16.5 8C16.5 8.49092 16.102 8.88889 15.6111 8.88889H8.5C8.00908 8.88889 7.61111 8.49092 7.61111 8C7.61111 7.50908 8.00908 7.11111 8.5 7.11111H15.6111Z" fill="black"/>
<path d="M13.8333 11.5556C13.8333 11.0646 14.2313 10.6667 14.7222 10.6667H15.6111C16.102 10.6667 16.5 11.0646 16.5 11.5556C16.5 12.0465 16.102 12.4444 15.6111 12.4444H14.7222C14.2313 12.4444 13.8333 12.0465 13.8333 11.5556Z" fill="black"/>
<path d="M5.83333 7.11111C6.32425 7.11111 6.72222 7.50908 6.72222 8C6.72222 8.49092 6.32425 8.88889 5.83333 8.88889H4.94444C4.45353 8.88889 4.05556 8.49092 4.05556 8C4.05556 7.50908 4.45353 7.11111 4.94444 7.11111H5.83333Z" fill="black"/>
<path fill-rule="evenodd" clip-rule="evenodd" d="M3.16667 0C1.69391 0 0.5 1.19391 0.5 2.66667V13.3333C0.5 14.8061 1.69391 16 3.16667 16H17.3889C18.8617 16 20.0556 14.8061 20.0556 13.3333V2.66667C20.0556 1.19391 18.8617 0 17.3889 0H3.16667ZM17.3889 1.77778H3.16667C2.67575 1.77778 2.27778 2.17575 2.27778 2.66667V13.3333C2.27778 13.8243 2.67575 14.2222 3.16667 14.2222H17.3889C17.8798 14.2222 18.2778 13.8243 18.2778 13.3333V2.66667C18.2778 2.17575 17.8798 1.77778 17.3889 1.77778Z" fill="black"/>
</svg>
