<svg width="20" height="20" viewBox="0 0 20 20" fill="none" xmlns="http://www.w3.org/2000/svg">
<path fill-rule="evenodd" clip-rule="evenodd" d="M5.65674 4.34225L9.89938 0.0996094L14.142 4.34225L9.89938 8.58489L5.65674 4.34225ZM8.48517 4.34225L9.89938 2.92804L11.3136 4.34225L9.89938 5.75646L8.48517 4.34225Z" fill="black"/>
<path fill-rule="evenodd" clip-rule="evenodd" d="M0 9.99905L4.24264 5.75641L8.48528 9.99905L4.24264 14.2417L0 9.99905ZM2.82843 9.99905L4.24264 8.58484L5.65685 9.99905L4.24264 11.4133L2.82843 9.99905Z" fill="black"/>
<path fill-rule="evenodd" clip-rule="evenodd" d="M11.3137 9.99905L15.5564 14.2417L19.799 9.99905L15.5564 5.75641L11.3137 9.99905ZM15.5564 8.58484L14.1421 9.99905L15.5564 11.4133L16.9706 9.99905L15.5564 8.58484Z" fill="black"/>
<path fill-rule="evenodd" clip-rule="evenodd" d="M5.65674 15.656L9.89938 11.4134L14.142 15.656L9.89938 19.8987L5.65674 15.656ZM8.48517 15.656L9.89938 14.2418L11.3136 15.656L9.89938 17.0702L8.48517 15.656Z" fill="black"/>
</svg>
