<svg width="21" height="18" viewBox="0 0 21 18" fill="none" xmlns="http://www.w3.org/2000/svg">
<path fill-rule="evenodd" clip-rule="evenodd" d="M6.5 8C8.70914 8 10.5 6.20914 10.5 4C10.5 1.79086 8.70914 0 6.5 0C4.29086 0 2.5 1.79086 2.5 4C2.5 6.20914 4.29086 8 6.5 8ZM6.5 6C7.60457 6 8.5 5.10457 8.5 4C8.5 2.89543 7.60457 2 6.5 2C5.39543 2 4.5 2.89543 4.5 4C4.5 5.10457 5.39543 6 6.5 6Z" fill="black"/>
<path d="M9.5 11C10.0523 11 10.5 11.4477 10.5 12V18H12.5V12C12.5 10.3431 11.1569 9 9.5 9H3.5C1.84315 9 0.5 10.3431 0.5 12V18H2.5V12C2.5 11.4477 2.94772 11 3.5 11H9.5Z" fill="black"/>
<path d="M20.5 8H14.5V10H20.5V8Z" fill="black"/>
<path d="M14.5 12H20.5V14H14.5V12Z" fill="black"/>
<path d="M20.5 4H14.5V6H20.5V4Z" fill="black"/>
</svg>
