<svg width="20" height="17" viewBox="0 0 20 17" fill="none" xmlns="http://www.w3.org/2000/svg">
<path d="M8.5 8C10.71 8 12.5 6.21 12.5 4C12.5 1.79 10.71 0 8.5 0C6.29 0 4.5 1.79 4.5 4C4.5 6.21 6.29 8 8.5 8ZM8.5 2C9.6 2 10.5 2.9 10.5 4C10.5 5.1 9.6 6 8.5 6C7.4 6 6.5 5.1 6.5 4C6.5 2.9 7.4 2 8.5 2ZM2.5 14C2.7 13.37 5.07 12.32 7.46 12.06L9.5 10.06C9.11 10.02 8.82 10 8.5 10C5.83 10 0.5 11.34 0.5 14V16H9.5L7.5 14H2.5ZM18.1 8.5L12.97 13.67L10.9 11.59L9.5 13L12.97 16.5L19.5 9.91L18.1 8.5Z" fill="black"/>
</svg>
