<svg width="20" height="21" viewBox="0 0 20 21" fill="none" xmlns="http://www.w3.org/2000/svg">
<path fill-rule="evenodd" clip-rule="evenodd" d="M14.9307 2.01587H12.7655C12.3582 0.842395 11.2428 0 9.93066 0C8.61852 0 7.50313 0.842395 7.09581 2.01587H4.93066C3.27381 2.01587 1.93066 3.35901 1.93066 5.01587V7.21205C0.801832 7.64283 0 8.73571 0 10.0159C0 11.296 0.801832 12.3889 1.93066 12.8197V15.0159C1.93066 16.6727 3.27381 18.0159 4.93066 18.0159H7.08467C7.48247 19.2064 8.60636 20.0645 9.93066 20.0645C11.255 20.0645 12.3789 19.2064 12.7767 18.0159H14.9307C16.5875 18.0159 17.9307 16.6727 17.9307 15.0159V12.8446C19.095 12.4322 19.929 11.3214 19.929 10.0159C19.929 8.71029 19.095 7.5995 17.9307 7.18718V5.01587C17.9307 3.35901 16.5875 2.01587 14.9307 2.01587ZM3.93066 12.8687V15.0159C3.93066 15.5682 4.37838 16.0159 4.93066 16.0159H7.11902C7.54426 14.8761 8.64267 14.0645 9.93066 14.0645C11.2187 14.0645 12.3171 14.8761 12.7423 16.0159H14.9307C15.4829 16.0159 15.9307 15.5682 15.9307 15.0159V12.8458C14.7646 12.4344 13.929 11.3227 13.929 10.0159C13.929 8.70901 14.7646 7.59732 15.9307 7.18597V5.01587C15.9307 4.46358 15.4829 4.01587 14.9307 4.01587H12.7543C12.338 5.17276 11.2309 6 9.93066 6C8.63038 6 7.52331 5.17276 7.10703 4.01587H4.93066C4.37838 4.01587 3.93066 4.46358 3.93066 5.01587V7.16302C5.13193 7.55465 6 8.68388 6 10.0159C6 11.3479 5.13193 12.4771 3.93066 12.8687Z" fill="black"/>
</svg>
