<svg width="13" height="18" viewBox="0 0 13 18" fill="none" xmlns="http://www.w3.org/2000/svg">
<path fill-rule="evenodd" clip-rule="evenodd" d="M10.5 4C10.5 6.20914 8.70914 8 6.5 8C4.29086 8 2.5 6.20914 2.5 4C2.5 1.79086 4.29086 0 6.5 0C8.70914 0 10.5 1.79086 10.5 4ZM8.5 4C8.5 5.10457 7.60457 6 6.5 6C5.39543 6 4.5 5.10457 4.5 4C4.5 2.89543 5.39543 2 6.5 2C7.60457 2 8.5 2.89543 8.5 4Z" fill="black"/>
<path d="M10.5 12C10.5 11.4477 10.0523 11 9.5 11H3.5C2.94772 11 2.5 11.4477 2.5 12V18H0.5V12C0.5 10.3431 1.84315 9 3.5 9H9.5C11.1569 9 12.5 10.3431 12.5 12V18H10.5V12Z" fill="black"/>
</svg>
