<svg width="512" height="512" viewBox="0 0 512 512" fill="none" xmlns="http://www.w3.org/2000/svg">
<path d="M429.75 302.417C429.75 355.16 386.993 397.917 334.25 397.917C281.507 397.917 238.75 355.16 238.75 302.417C238.75 249.674 281.507 206.917 334.25 206.917C386.993 206.917 429.75 249.674 429.75 302.417ZM291.662 302.417C291.662 325.937 310.73 345.005 334.25 345.005C357.77 345.005 376.838 325.937 376.838 302.417C376.838 278.897 357.77 259.829 334.25 259.829C310.73 259.829 291.662 278.897 291.662 302.417Z" fill="#EEF0FA"/>
<path d="M334.716 222.757C315.584 222.757 297.084 229.602 282.56 242.055C268.036 254.508 258.448 271.747 255.528 290.654C252.608 309.562 256.549 328.89 266.64 345.144C276.73 361.399 292.303 373.506 310.544 379.278L316.334 360.976C302.464 356.587 290.621 347.38 282.948 335.02C275.275 322.66 272.278 307.962 274.498 293.584C276.719 279.206 284.01 266.097 295.055 256.628C306.099 247.158 320.167 241.952 334.716 241.952V222.757Z" fill="#E8762D"/>
<path d="M274.17 250.4C281.761 241.643 291.162 234.636 301.724 229.864C312.286 225.092 323.757 222.668 335.347 222.759L335.195 241.954C326.382 241.885 317.659 243.728 309.628 247.357C301.596 250.986 294.447 256.314 288.675 262.973L274.17 250.4Z" fill="#97A5EB"/>
<path d="M334.716 222.757C346.338 222.757 357.82 225.285 368.368 230.166C378.915 235.047 388.274 242.164 395.796 251.023C403.318 259.882 408.823 270.272 411.928 281.471C415.034 292.67 415.667 304.411 413.782 315.879C411.897 327.347 407.54 338.268 401.013 347.884C394.486 357.5 385.945 365.581 375.983 371.566C366.021 377.552 354.877 381.299 343.322 382.547C331.767 383.795 320.079 382.515 309.069 378.795L315.213 360.609C323.586 363.438 332.474 364.412 341.26 363.462C350.047 362.513 358.522 359.664 366.097 355.112C373.672 350.561 380.167 344.416 385.13 337.103C390.094 329.791 393.407 321.486 394.84 312.766C396.274 304.045 395.793 295.117 393.431 286.601C391.069 278.085 386.883 270.184 381.163 263.447C375.443 256.71 368.326 251.298 360.306 247.587C352.285 243.875 343.553 241.952 334.716 241.952V222.757Z" fill="#5570F1"/>
<path d="M212.647 406.747H359.08V477.417H123.513V33.0236H212.647V406.747Z" fill="#5570F1"/>
</svg>
